M48
; DRILL file {KiCad (5.1.2-1)-1} date Saturday, 30 July 2022 at 23:38:57
; FORMAT={-:-/ absolute / metric / decimal}
; #@! TF.CreationDate,2022-07-30T23:38:57+02:00
; #@! TF.GenerationSoftware,Kicad,Pcbnew,(5.1.2-1)-1
; #@! TF.FileFunction,Plated,1,2,PTH
FMAT,2
METRIC
T1C1.000
%
G90
G05
T1
X124.0Y-85.41
X124.0Y-87.95
X126.54Y-85.41
X126.54Y-87.95
X129.08Y-85.41
X129.08Y-87.95
X131.62Y-85.41
X131.62Y-87.95
X134.16Y-85.41
X134.16Y-87.95
X136.7Y-85.41
X136.7Y-87.95
X139.24Y-85.41
X139.24Y-87.95
X141.78Y-85.41
X141.78Y-87.95
X144.32Y-85.41
X144.32Y-87.95
X146.86Y-85.41
X146.86Y-87.95
X149.4Y-85.41
X149.4Y-87.95
X151.94Y-85.41
X151.94Y-87.95
X154.48Y-85.41
X154.48Y-87.95
X157.02Y-85.41
X157.02Y-87.95
X159.56Y-85.41
X159.56Y-87.95
X162.1Y-85.41
X162.1Y-87.95
X164.64Y-85.41
X164.64Y-87.95
X167.18Y-85.41
X167.18Y-87.95
X169.72Y-85.41
X169.72Y-87.95
X172.26Y-85.41
X172.26Y-87.95
X174.8Y-85.41
X174.8Y-87.95
X177.34Y-85.41
X177.34Y-87.95
T0
M30
