G04 #@! TF.GenerationSoftware,KiCad,Pcbnew,(5.1.2-1)-1*
G04 #@! TF.CreationDate,2022-07-30T23:38:52+02:00*
G04 #@! TF.ProjectId,ElectronBreakOut,456c6563-7472-46f6-9e42-7265616b4f75,rev?*
G04 #@! TF.SameCoordinates,Original*
G04 #@! TF.FileFunction,Soldermask,Bot*
G04 #@! TF.FilePolarity,Negative*
%FSLAX46Y46*%
G04 Gerber Fmt 4.6, Leading zero omitted, Abs format (unit mm)*
G04 Created by KiCad (PCBNEW (5.1.2-1)-1) date 2022-07-30 23:38:52*
%MOMM*%
%LPD*%
G04 APERTURE LIST*
%ADD10C,0.100000*%
G04 APERTURE END LIST*
D10*
G36*
X177978000Y-130265000D02*
G01*
X176606000Y-130265000D01*
X176606000Y-119163000D01*
X177978000Y-119163000D01*
X177978000Y-130265000D01*
X177978000Y-130265000D01*
G37*
G36*
X175438000Y-130265000D02*
G01*
X174066000Y-130265000D01*
X174066000Y-119163000D01*
X175438000Y-119163000D01*
X175438000Y-130265000D01*
X175438000Y-130265000D01*
G37*
G36*
X172898000Y-130265000D02*
G01*
X171526000Y-130265000D01*
X171526000Y-119163000D01*
X172898000Y-119163000D01*
X172898000Y-130265000D01*
X172898000Y-130265000D01*
G37*
G36*
X170358000Y-130265000D02*
G01*
X168986000Y-130265000D01*
X168986000Y-119163000D01*
X170358000Y-119163000D01*
X170358000Y-130265000D01*
X170358000Y-130265000D01*
G37*
G36*
X167818000Y-130265000D02*
G01*
X166446000Y-130265000D01*
X166446000Y-119163000D01*
X167818000Y-119163000D01*
X167818000Y-130265000D01*
X167818000Y-130265000D01*
G37*
G36*
X165278000Y-130265000D02*
G01*
X163906000Y-130265000D01*
X163906000Y-119163000D01*
X165278000Y-119163000D01*
X165278000Y-130265000D01*
X165278000Y-130265000D01*
G37*
G36*
X162738000Y-130265000D02*
G01*
X161366000Y-130265000D01*
X161366000Y-119163000D01*
X162738000Y-119163000D01*
X162738000Y-130265000D01*
X162738000Y-130265000D01*
G37*
G36*
X160198000Y-130265000D02*
G01*
X158826000Y-130265000D01*
X158826000Y-119163000D01*
X160198000Y-119163000D01*
X160198000Y-130265000D01*
X160198000Y-130265000D01*
G37*
G36*
X157658000Y-130265000D02*
G01*
X156286000Y-130265000D01*
X156286000Y-119163000D01*
X157658000Y-119163000D01*
X157658000Y-130265000D01*
X157658000Y-130265000D01*
G37*
G36*
X155118000Y-130265000D02*
G01*
X153746000Y-130265000D01*
X153746000Y-119163000D01*
X155118000Y-119163000D01*
X155118000Y-130265000D01*
X155118000Y-130265000D01*
G37*
G36*
X152578000Y-130265000D02*
G01*
X151206000Y-130265000D01*
X151206000Y-119163000D01*
X152578000Y-119163000D01*
X152578000Y-130265000D01*
X152578000Y-130265000D01*
G37*
G36*
X150038000Y-130265000D02*
G01*
X148666000Y-130265000D01*
X148666000Y-119163000D01*
X150038000Y-119163000D01*
X150038000Y-130265000D01*
X150038000Y-130265000D01*
G37*
G36*
X147498000Y-130265000D02*
G01*
X146126000Y-130265000D01*
X146126000Y-119163000D01*
X147498000Y-119163000D01*
X147498000Y-130265000D01*
X147498000Y-130265000D01*
G37*
G36*
X144958000Y-130265000D02*
G01*
X143586000Y-130265000D01*
X143586000Y-119163000D01*
X144958000Y-119163000D01*
X144958000Y-130265000D01*
X144958000Y-130265000D01*
G37*
G36*
X142418000Y-130265000D02*
G01*
X141046000Y-130265000D01*
X141046000Y-119163000D01*
X142418000Y-119163000D01*
X142418000Y-130265000D01*
X142418000Y-130265000D01*
G37*
G36*
X139878000Y-130265000D02*
G01*
X138506000Y-130265000D01*
X138506000Y-119163000D01*
X139878000Y-119163000D01*
X139878000Y-130265000D01*
X139878000Y-130265000D01*
G37*
G36*
X137338000Y-130265000D02*
G01*
X135966000Y-130265000D01*
X135966000Y-119163000D01*
X137338000Y-119163000D01*
X137338000Y-130265000D01*
X137338000Y-130265000D01*
G37*
G36*
X134798000Y-130265000D02*
G01*
X133426000Y-130265000D01*
X133426000Y-119163000D01*
X134798000Y-119163000D01*
X134798000Y-130265000D01*
X134798000Y-130265000D01*
G37*
G36*
X132258000Y-130265000D02*
G01*
X130886000Y-130265000D01*
X130886000Y-119163000D01*
X132258000Y-119163000D01*
X132258000Y-130265000D01*
X132258000Y-130265000D01*
G37*
G36*
X129718000Y-130265000D02*
G01*
X128346000Y-130265000D01*
X128346000Y-119163000D01*
X129718000Y-119163000D01*
X129718000Y-130265000D01*
X129718000Y-130265000D01*
G37*
G36*
X127178000Y-130265000D02*
G01*
X125806000Y-130265000D01*
X125806000Y-119163000D01*
X127178000Y-119163000D01*
X127178000Y-130265000D01*
X127178000Y-130265000D01*
G37*
G36*
X124638000Y-130265000D02*
G01*
X123266000Y-130265000D01*
X123266000Y-119163000D01*
X124638000Y-119163000D01*
X124638000Y-130265000D01*
X124638000Y-130265000D01*
G37*
G36*
X124901000Y-88851000D02*
G01*
X123099000Y-88851000D01*
X123099000Y-87049000D01*
X124901000Y-87049000D01*
X124901000Y-88851000D01*
X124901000Y-88851000D01*
G37*
G36*
X126650443Y-87055519D02*
G01*
X126716627Y-87062037D01*
X126886466Y-87113557D01*
X127042991Y-87197222D01*
X127078729Y-87226552D01*
X127180186Y-87309814D01*
X127263448Y-87411271D01*
X127292778Y-87447009D01*
X127376443Y-87603534D01*
X127427963Y-87773373D01*
X127445359Y-87950000D01*
X127427963Y-88126627D01*
X127376443Y-88296466D01*
X127292778Y-88452991D01*
X127263448Y-88488729D01*
X127180186Y-88590186D01*
X127078729Y-88673448D01*
X127042991Y-88702778D01*
X126886466Y-88786443D01*
X126716627Y-88837963D01*
X126650443Y-88844481D01*
X126584260Y-88851000D01*
X126495740Y-88851000D01*
X126429557Y-88844481D01*
X126363373Y-88837963D01*
X126193534Y-88786443D01*
X126037009Y-88702778D01*
X126001271Y-88673448D01*
X125899814Y-88590186D01*
X125816552Y-88488729D01*
X125787222Y-88452991D01*
X125703557Y-88296466D01*
X125652037Y-88126627D01*
X125634641Y-87950000D01*
X125652037Y-87773373D01*
X125703557Y-87603534D01*
X125787222Y-87447009D01*
X125816552Y-87411271D01*
X125899814Y-87309814D01*
X126001271Y-87226552D01*
X126037009Y-87197222D01*
X126193534Y-87113557D01*
X126363373Y-87062037D01*
X126429557Y-87055519D01*
X126495740Y-87049000D01*
X126584260Y-87049000D01*
X126650443Y-87055519D01*
X126650443Y-87055519D01*
G37*
G36*
X129190443Y-87055519D02*
G01*
X129256627Y-87062037D01*
X129426466Y-87113557D01*
X129582991Y-87197222D01*
X129618729Y-87226552D01*
X129720186Y-87309814D01*
X129803448Y-87411271D01*
X129832778Y-87447009D01*
X129916443Y-87603534D01*
X129967963Y-87773373D01*
X129985359Y-87950000D01*
X129967963Y-88126627D01*
X129916443Y-88296466D01*
X129832778Y-88452991D01*
X129803448Y-88488729D01*
X129720186Y-88590186D01*
X129618729Y-88673448D01*
X129582991Y-88702778D01*
X129426466Y-88786443D01*
X129256627Y-88837963D01*
X129190443Y-88844481D01*
X129124260Y-88851000D01*
X129035740Y-88851000D01*
X128969557Y-88844481D01*
X128903373Y-88837963D01*
X128733534Y-88786443D01*
X128577009Y-88702778D01*
X128541271Y-88673448D01*
X128439814Y-88590186D01*
X128356552Y-88488729D01*
X128327222Y-88452991D01*
X128243557Y-88296466D01*
X128192037Y-88126627D01*
X128174641Y-87950000D01*
X128192037Y-87773373D01*
X128243557Y-87603534D01*
X128327222Y-87447009D01*
X128356552Y-87411271D01*
X128439814Y-87309814D01*
X128541271Y-87226552D01*
X128577009Y-87197222D01*
X128733534Y-87113557D01*
X128903373Y-87062037D01*
X128969557Y-87055519D01*
X129035740Y-87049000D01*
X129124260Y-87049000D01*
X129190443Y-87055519D01*
X129190443Y-87055519D01*
G37*
G36*
X131730443Y-87055519D02*
G01*
X131796627Y-87062037D01*
X131966466Y-87113557D01*
X132122991Y-87197222D01*
X132158729Y-87226552D01*
X132260186Y-87309814D01*
X132343448Y-87411271D01*
X132372778Y-87447009D01*
X132456443Y-87603534D01*
X132507963Y-87773373D01*
X132525359Y-87950000D01*
X132507963Y-88126627D01*
X132456443Y-88296466D01*
X132372778Y-88452991D01*
X132343448Y-88488729D01*
X132260186Y-88590186D01*
X132158729Y-88673448D01*
X132122991Y-88702778D01*
X131966466Y-88786443D01*
X131796627Y-88837963D01*
X131730443Y-88844481D01*
X131664260Y-88851000D01*
X131575740Y-88851000D01*
X131509557Y-88844481D01*
X131443373Y-88837963D01*
X131273534Y-88786443D01*
X131117009Y-88702778D01*
X131081271Y-88673448D01*
X130979814Y-88590186D01*
X130896552Y-88488729D01*
X130867222Y-88452991D01*
X130783557Y-88296466D01*
X130732037Y-88126627D01*
X130714641Y-87950000D01*
X130732037Y-87773373D01*
X130783557Y-87603534D01*
X130867222Y-87447009D01*
X130896552Y-87411271D01*
X130979814Y-87309814D01*
X131081271Y-87226552D01*
X131117009Y-87197222D01*
X131273534Y-87113557D01*
X131443373Y-87062037D01*
X131509557Y-87055519D01*
X131575740Y-87049000D01*
X131664260Y-87049000D01*
X131730443Y-87055519D01*
X131730443Y-87055519D01*
G37*
G36*
X134270443Y-87055519D02*
G01*
X134336627Y-87062037D01*
X134506466Y-87113557D01*
X134662991Y-87197222D01*
X134698729Y-87226552D01*
X134800186Y-87309814D01*
X134883448Y-87411271D01*
X134912778Y-87447009D01*
X134996443Y-87603534D01*
X135047963Y-87773373D01*
X135065359Y-87950000D01*
X135047963Y-88126627D01*
X134996443Y-88296466D01*
X134912778Y-88452991D01*
X134883448Y-88488729D01*
X134800186Y-88590186D01*
X134698729Y-88673448D01*
X134662991Y-88702778D01*
X134506466Y-88786443D01*
X134336627Y-88837963D01*
X134270443Y-88844481D01*
X134204260Y-88851000D01*
X134115740Y-88851000D01*
X134049557Y-88844481D01*
X133983373Y-88837963D01*
X133813534Y-88786443D01*
X133657009Y-88702778D01*
X133621271Y-88673448D01*
X133519814Y-88590186D01*
X133436552Y-88488729D01*
X133407222Y-88452991D01*
X133323557Y-88296466D01*
X133272037Y-88126627D01*
X133254641Y-87950000D01*
X133272037Y-87773373D01*
X133323557Y-87603534D01*
X133407222Y-87447009D01*
X133436552Y-87411271D01*
X133519814Y-87309814D01*
X133621271Y-87226552D01*
X133657009Y-87197222D01*
X133813534Y-87113557D01*
X133983373Y-87062037D01*
X134049557Y-87055519D01*
X134115740Y-87049000D01*
X134204260Y-87049000D01*
X134270443Y-87055519D01*
X134270443Y-87055519D01*
G37*
G36*
X136810443Y-87055519D02*
G01*
X136876627Y-87062037D01*
X137046466Y-87113557D01*
X137202991Y-87197222D01*
X137238729Y-87226552D01*
X137340186Y-87309814D01*
X137423448Y-87411271D01*
X137452778Y-87447009D01*
X137536443Y-87603534D01*
X137587963Y-87773373D01*
X137605359Y-87950000D01*
X137587963Y-88126627D01*
X137536443Y-88296466D01*
X137452778Y-88452991D01*
X137423448Y-88488729D01*
X137340186Y-88590186D01*
X137238729Y-88673448D01*
X137202991Y-88702778D01*
X137046466Y-88786443D01*
X136876627Y-88837963D01*
X136810443Y-88844481D01*
X136744260Y-88851000D01*
X136655740Y-88851000D01*
X136589557Y-88844481D01*
X136523373Y-88837963D01*
X136353534Y-88786443D01*
X136197009Y-88702778D01*
X136161271Y-88673448D01*
X136059814Y-88590186D01*
X135976552Y-88488729D01*
X135947222Y-88452991D01*
X135863557Y-88296466D01*
X135812037Y-88126627D01*
X135794641Y-87950000D01*
X135812037Y-87773373D01*
X135863557Y-87603534D01*
X135947222Y-87447009D01*
X135976552Y-87411271D01*
X136059814Y-87309814D01*
X136161271Y-87226552D01*
X136197009Y-87197222D01*
X136353534Y-87113557D01*
X136523373Y-87062037D01*
X136589557Y-87055519D01*
X136655740Y-87049000D01*
X136744260Y-87049000D01*
X136810443Y-87055519D01*
X136810443Y-87055519D01*
G37*
G36*
X139350443Y-87055519D02*
G01*
X139416627Y-87062037D01*
X139586466Y-87113557D01*
X139742991Y-87197222D01*
X139778729Y-87226552D01*
X139880186Y-87309814D01*
X139963448Y-87411271D01*
X139992778Y-87447009D01*
X140076443Y-87603534D01*
X140127963Y-87773373D01*
X140145359Y-87950000D01*
X140127963Y-88126627D01*
X140076443Y-88296466D01*
X139992778Y-88452991D01*
X139963448Y-88488729D01*
X139880186Y-88590186D01*
X139778729Y-88673448D01*
X139742991Y-88702778D01*
X139586466Y-88786443D01*
X139416627Y-88837963D01*
X139350443Y-88844481D01*
X139284260Y-88851000D01*
X139195740Y-88851000D01*
X139129557Y-88844481D01*
X139063373Y-88837963D01*
X138893534Y-88786443D01*
X138737009Y-88702778D01*
X138701271Y-88673448D01*
X138599814Y-88590186D01*
X138516552Y-88488729D01*
X138487222Y-88452991D01*
X138403557Y-88296466D01*
X138352037Y-88126627D01*
X138334641Y-87950000D01*
X138352037Y-87773373D01*
X138403557Y-87603534D01*
X138487222Y-87447009D01*
X138516552Y-87411271D01*
X138599814Y-87309814D01*
X138701271Y-87226552D01*
X138737009Y-87197222D01*
X138893534Y-87113557D01*
X139063373Y-87062037D01*
X139129557Y-87055519D01*
X139195740Y-87049000D01*
X139284260Y-87049000D01*
X139350443Y-87055519D01*
X139350443Y-87055519D01*
G37*
G36*
X141890443Y-87055519D02*
G01*
X141956627Y-87062037D01*
X142126466Y-87113557D01*
X142282991Y-87197222D01*
X142318729Y-87226552D01*
X142420186Y-87309814D01*
X142503448Y-87411271D01*
X142532778Y-87447009D01*
X142616443Y-87603534D01*
X142667963Y-87773373D01*
X142685359Y-87950000D01*
X142667963Y-88126627D01*
X142616443Y-88296466D01*
X142532778Y-88452991D01*
X142503448Y-88488729D01*
X142420186Y-88590186D01*
X142318729Y-88673448D01*
X142282991Y-88702778D01*
X142126466Y-88786443D01*
X141956627Y-88837963D01*
X141890443Y-88844481D01*
X141824260Y-88851000D01*
X141735740Y-88851000D01*
X141669557Y-88844481D01*
X141603373Y-88837963D01*
X141433534Y-88786443D01*
X141277009Y-88702778D01*
X141241271Y-88673448D01*
X141139814Y-88590186D01*
X141056552Y-88488729D01*
X141027222Y-88452991D01*
X140943557Y-88296466D01*
X140892037Y-88126627D01*
X140874641Y-87950000D01*
X140892037Y-87773373D01*
X140943557Y-87603534D01*
X141027222Y-87447009D01*
X141056552Y-87411271D01*
X141139814Y-87309814D01*
X141241271Y-87226552D01*
X141277009Y-87197222D01*
X141433534Y-87113557D01*
X141603373Y-87062037D01*
X141669557Y-87055519D01*
X141735740Y-87049000D01*
X141824260Y-87049000D01*
X141890443Y-87055519D01*
X141890443Y-87055519D01*
G37*
G36*
X144430443Y-87055519D02*
G01*
X144496627Y-87062037D01*
X144666466Y-87113557D01*
X144822991Y-87197222D01*
X144858729Y-87226552D01*
X144960186Y-87309814D01*
X145043448Y-87411271D01*
X145072778Y-87447009D01*
X145156443Y-87603534D01*
X145207963Y-87773373D01*
X145225359Y-87950000D01*
X145207963Y-88126627D01*
X145156443Y-88296466D01*
X145072778Y-88452991D01*
X145043448Y-88488729D01*
X144960186Y-88590186D01*
X144858729Y-88673448D01*
X144822991Y-88702778D01*
X144666466Y-88786443D01*
X144496627Y-88837963D01*
X144430443Y-88844481D01*
X144364260Y-88851000D01*
X144275740Y-88851000D01*
X144209557Y-88844481D01*
X144143373Y-88837963D01*
X143973534Y-88786443D01*
X143817009Y-88702778D01*
X143781271Y-88673448D01*
X143679814Y-88590186D01*
X143596552Y-88488729D01*
X143567222Y-88452991D01*
X143483557Y-88296466D01*
X143432037Y-88126627D01*
X143414641Y-87950000D01*
X143432037Y-87773373D01*
X143483557Y-87603534D01*
X143567222Y-87447009D01*
X143596552Y-87411271D01*
X143679814Y-87309814D01*
X143781271Y-87226552D01*
X143817009Y-87197222D01*
X143973534Y-87113557D01*
X144143373Y-87062037D01*
X144209557Y-87055519D01*
X144275740Y-87049000D01*
X144364260Y-87049000D01*
X144430443Y-87055519D01*
X144430443Y-87055519D01*
G37*
G36*
X146970443Y-87055519D02*
G01*
X147036627Y-87062037D01*
X147206466Y-87113557D01*
X147362991Y-87197222D01*
X147398729Y-87226552D01*
X147500186Y-87309814D01*
X147583448Y-87411271D01*
X147612778Y-87447009D01*
X147696443Y-87603534D01*
X147747963Y-87773373D01*
X147765359Y-87950000D01*
X147747963Y-88126627D01*
X147696443Y-88296466D01*
X147612778Y-88452991D01*
X147583448Y-88488729D01*
X147500186Y-88590186D01*
X147398729Y-88673448D01*
X147362991Y-88702778D01*
X147206466Y-88786443D01*
X147036627Y-88837963D01*
X146970443Y-88844481D01*
X146904260Y-88851000D01*
X146815740Y-88851000D01*
X146749557Y-88844481D01*
X146683373Y-88837963D01*
X146513534Y-88786443D01*
X146357009Y-88702778D01*
X146321271Y-88673448D01*
X146219814Y-88590186D01*
X146136552Y-88488729D01*
X146107222Y-88452991D01*
X146023557Y-88296466D01*
X145972037Y-88126627D01*
X145954641Y-87950000D01*
X145972037Y-87773373D01*
X146023557Y-87603534D01*
X146107222Y-87447009D01*
X146136552Y-87411271D01*
X146219814Y-87309814D01*
X146321271Y-87226552D01*
X146357009Y-87197222D01*
X146513534Y-87113557D01*
X146683373Y-87062037D01*
X146749557Y-87055519D01*
X146815740Y-87049000D01*
X146904260Y-87049000D01*
X146970443Y-87055519D01*
X146970443Y-87055519D01*
G37*
G36*
X149510443Y-87055519D02*
G01*
X149576627Y-87062037D01*
X149746466Y-87113557D01*
X149902991Y-87197222D01*
X149938729Y-87226552D01*
X150040186Y-87309814D01*
X150123448Y-87411271D01*
X150152778Y-87447009D01*
X150236443Y-87603534D01*
X150287963Y-87773373D01*
X150305359Y-87950000D01*
X150287963Y-88126627D01*
X150236443Y-88296466D01*
X150152778Y-88452991D01*
X150123448Y-88488729D01*
X150040186Y-88590186D01*
X149938729Y-88673448D01*
X149902991Y-88702778D01*
X149746466Y-88786443D01*
X149576627Y-88837963D01*
X149510443Y-88844481D01*
X149444260Y-88851000D01*
X149355740Y-88851000D01*
X149289557Y-88844481D01*
X149223373Y-88837963D01*
X149053534Y-88786443D01*
X148897009Y-88702778D01*
X148861271Y-88673448D01*
X148759814Y-88590186D01*
X148676552Y-88488729D01*
X148647222Y-88452991D01*
X148563557Y-88296466D01*
X148512037Y-88126627D01*
X148494641Y-87950000D01*
X148512037Y-87773373D01*
X148563557Y-87603534D01*
X148647222Y-87447009D01*
X148676552Y-87411271D01*
X148759814Y-87309814D01*
X148861271Y-87226552D01*
X148897009Y-87197222D01*
X149053534Y-87113557D01*
X149223373Y-87062037D01*
X149289557Y-87055519D01*
X149355740Y-87049000D01*
X149444260Y-87049000D01*
X149510443Y-87055519D01*
X149510443Y-87055519D01*
G37*
G36*
X152050443Y-87055519D02*
G01*
X152116627Y-87062037D01*
X152286466Y-87113557D01*
X152442991Y-87197222D01*
X152478729Y-87226552D01*
X152580186Y-87309814D01*
X152663448Y-87411271D01*
X152692778Y-87447009D01*
X152776443Y-87603534D01*
X152827963Y-87773373D01*
X152845359Y-87950000D01*
X152827963Y-88126627D01*
X152776443Y-88296466D01*
X152692778Y-88452991D01*
X152663448Y-88488729D01*
X152580186Y-88590186D01*
X152478729Y-88673448D01*
X152442991Y-88702778D01*
X152286466Y-88786443D01*
X152116627Y-88837963D01*
X152050443Y-88844481D01*
X151984260Y-88851000D01*
X151895740Y-88851000D01*
X151829557Y-88844481D01*
X151763373Y-88837963D01*
X151593534Y-88786443D01*
X151437009Y-88702778D01*
X151401271Y-88673448D01*
X151299814Y-88590186D01*
X151216552Y-88488729D01*
X151187222Y-88452991D01*
X151103557Y-88296466D01*
X151052037Y-88126627D01*
X151034641Y-87950000D01*
X151052037Y-87773373D01*
X151103557Y-87603534D01*
X151187222Y-87447009D01*
X151216552Y-87411271D01*
X151299814Y-87309814D01*
X151401271Y-87226552D01*
X151437009Y-87197222D01*
X151593534Y-87113557D01*
X151763373Y-87062037D01*
X151829557Y-87055519D01*
X151895740Y-87049000D01*
X151984260Y-87049000D01*
X152050443Y-87055519D01*
X152050443Y-87055519D01*
G37*
G36*
X154590443Y-87055519D02*
G01*
X154656627Y-87062037D01*
X154826466Y-87113557D01*
X154982991Y-87197222D01*
X155018729Y-87226552D01*
X155120186Y-87309814D01*
X155203448Y-87411271D01*
X155232778Y-87447009D01*
X155316443Y-87603534D01*
X155367963Y-87773373D01*
X155385359Y-87950000D01*
X155367963Y-88126627D01*
X155316443Y-88296466D01*
X155232778Y-88452991D01*
X155203448Y-88488729D01*
X155120186Y-88590186D01*
X155018729Y-88673448D01*
X154982991Y-88702778D01*
X154826466Y-88786443D01*
X154656627Y-88837963D01*
X154590443Y-88844481D01*
X154524260Y-88851000D01*
X154435740Y-88851000D01*
X154369557Y-88844481D01*
X154303373Y-88837963D01*
X154133534Y-88786443D01*
X153977009Y-88702778D01*
X153941271Y-88673448D01*
X153839814Y-88590186D01*
X153756552Y-88488729D01*
X153727222Y-88452991D01*
X153643557Y-88296466D01*
X153592037Y-88126627D01*
X153574641Y-87950000D01*
X153592037Y-87773373D01*
X153643557Y-87603534D01*
X153727222Y-87447009D01*
X153756552Y-87411271D01*
X153839814Y-87309814D01*
X153941271Y-87226552D01*
X153977009Y-87197222D01*
X154133534Y-87113557D01*
X154303373Y-87062037D01*
X154369557Y-87055519D01*
X154435740Y-87049000D01*
X154524260Y-87049000D01*
X154590443Y-87055519D01*
X154590443Y-87055519D01*
G37*
G36*
X157130443Y-87055519D02*
G01*
X157196627Y-87062037D01*
X157366466Y-87113557D01*
X157522991Y-87197222D01*
X157558729Y-87226552D01*
X157660186Y-87309814D01*
X157743448Y-87411271D01*
X157772778Y-87447009D01*
X157856443Y-87603534D01*
X157907963Y-87773373D01*
X157925359Y-87950000D01*
X157907963Y-88126627D01*
X157856443Y-88296466D01*
X157772778Y-88452991D01*
X157743448Y-88488729D01*
X157660186Y-88590186D01*
X157558729Y-88673448D01*
X157522991Y-88702778D01*
X157366466Y-88786443D01*
X157196627Y-88837963D01*
X157130443Y-88844481D01*
X157064260Y-88851000D01*
X156975740Y-88851000D01*
X156909557Y-88844481D01*
X156843373Y-88837963D01*
X156673534Y-88786443D01*
X156517009Y-88702778D01*
X156481271Y-88673448D01*
X156379814Y-88590186D01*
X156296552Y-88488729D01*
X156267222Y-88452991D01*
X156183557Y-88296466D01*
X156132037Y-88126627D01*
X156114641Y-87950000D01*
X156132037Y-87773373D01*
X156183557Y-87603534D01*
X156267222Y-87447009D01*
X156296552Y-87411271D01*
X156379814Y-87309814D01*
X156481271Y-87226552D01*
X156517009Y-87197222D01*
X156673534Y-87113557D01*
X156843373Y-87062037D01*
X156909557Y-87055519D01*
X156975740Y-87049000D01*
X157064260Y-87049000D01*
X157130443Y-87055519D01*
X157130443Y-87055519D01*
G37*
G36*
X159670443Y-87055519D02*
G01*
X159736627Y-87062037D01*
X159906466Y-87113557D01*
X160062991Y-87197222D01*
X160098729Y-87226552D01*
X160200186Y-87309814D01*
X160283448Y-87411271D01*
X160312778Y-87447009D01*
X160396443Y-87603534D01*
X160447963Y-87773373D01*
X160465359Y-87950000D01*
X160447963Y-88126627D01*
X160396443Y-88296466D01*
X160312778Y-88452991D01*
X160283448Y-88488729D01*
X160200186Y-88590186D01*
X160098729Y-88673448D01*
X160062991Y-88702778D01*
X159906466Y-88786443D01*
X159736627Y-88837963D01*
X159670443Y-88844481D01*
X159604260Y-88851000D01*
X159515740Y-88851000D01*
X159449557Y-88844481D01*
X159383373Y-88837963D01*
X159213534Y-88786443D01*
X159057009Y-88702778D01*
X159021271Y-88673448D01*
X158919814Y-88590186D01*
X158836552Y-88488729D01*
X158807222Y-88452991D01*
X158723557Y-88296466D01*
X158672037Y-88126627D01*
X158654641Y-87950000D01*
X158672037Y-87773373D01*
X158723557Y-87603534D01*
X158807222Y-87447009D01*
X158836552Y-87411271D01*
X158919814Y-87309814D01*
X159021271Y-87226552D01*
X159057009Y-87197222D01*
X159213534Y-87113557D01*
X159383373Y-87062037D01*
X159449557Y-87055519D01*
X159515740Y-87049000D01*
X159604260Y-87049000D01*
X159670443Y-87055519D01*
X159670443Y-87055519D01*
G37*
G36*
X162210443Y-87055519D02*
G01*
X162276627Y-87062037D01*
X162446466Y-87113557D01*
X162602991Y-87197222D01*
X162638729Y-87226552D01*
X162740186Y-87309814D01*
X162823448Y-87411271D01*
X162852778Y-87447009D01*
X162936443Y-87603534D01*
X162987963Y-87773373D01*
X163005359Y-87950000D01*
X162987963Y-88126627D01*
X162936443Y-88296466D01*
X162852778Y-88452991D01*
X162823448Y-88488729D01*
X162740186Y-88590186D01*
X162638729Y-88673448D01*
X162602991Y-88702778D01*
X162446466Y-88786443D01*
X162276627Y-88837963D01*
X162210443Y-88844481D01*
X162144260Y-88851000D01*
X162055740Y-88851000D01*
X161989557Y-88844481D01*
X161923373Y-88837963D01*
X161753534Y-88786443D01*
X161597009Y-88702778D01*
X161561271Y-88673448D01*
X161459814Y-88590186D01*
X161376552Y-88488729D01*
X161347222Y-88452991D01*
X161263557Y-88296466D01*
X161212037Y-88126627D01*
X161194641Y-87950000D01*
X161212037Y-87773373D01*
X161263557Y-87603534D01*
X161347222Y-87447009D01*
X161376552Y-87411271D01*
X161459814Y-87309814D01*
X161561271Y-87226552D01*
X161597009Y-87197222D01*
X161753534Y-87113557D01*
X161923373Y-87062037D01*
X161989557Y-87055519D01*
X162055740Y-87049000D01*
X162144260Y-87049000D01*
X162210443Y-87055519D01*
X162210443Y-87055519D01*
G37*
G36*
X164750443Y-87055519D02*
G01*
X164816627Y-87062037D01*
X164986466Y-87113557D01*
X165142991Y-87197222D01*
X165178729Y-87226552D01*
X165280186Y-87309814D01*
X165363448Y-87411271D01*
X165392778Y-87447009D01*
X165476443Y-87603534D01*
X165527963Y-87773373D01*
X165545359Y-87950000D01*
X165527963Y-88126627D01*
X165476443Y-88296466D01*
X165392778Y-88452991D01*
X165363448Y-88488729D01*
X165280186Y-88590186D01*
X165178729Y-88673448D01*
X165142991Y-88702778D01*
X164986466Y-88786443D01*
X164816627Y-88837963D01*
X164750443Y-88844481D01*
X164684260Y-88851000D01*
X164595740Y-88851000D01*
X164529557Y-88844481D01*
X164463373Y-88837963D01*
X164293534Y-88786443D01*
X164137009Y-88702778D01*
X164101271Y-88673448D01*
X163999814Y-88590186D01*
X163916552Y-88488729D01*
X163887222Y-88452991D01*
X163803557Y-88296466D01*
X163752037Y-88126627D01*
X163734641Y-87950000D01*
X163752037Y-87773373D01*
X163803557Y-87603534D01*
X163887222Y-87447009D01*
X163916552Y-87411271D01*
X163999814Y-87309814D01*
X164101271Y-87226552D01*
X164137009Y-87197222D01*
X164293534Y-87113557D01*
X164463373Y-87062037D01*
X164529557Y-87055519D01*
X164595740Y-87049000D01*
X164684260Y-87049000D01*
X164750443Y-87055519D01*
X164750443Y-87055519D01*
G37*
G36*
X167290443Y-87055519D02*
G01*
X167356627Y-87062037D01*
X167526466Y-87113557D01*
X167682991Y-87197222D01*
X167718729Y-87226552D01*
X167820186Y-87309814D01*
X167903448Y-87411271D01*
X167932778Y-87447009D01*
X168016443Y-87603534D01*
X168067963Y-87773373D01*
X168085359Y-87950000D01*
X168067963Y-88126627D01*
X168016443Y-88296466D01*
X167932778Y-88452991D01*
X167903448Y-88488729D01*
X167820186Y-88590186D01*
X167718729Y-88673448D01*
X167682991Y-88702778D01*
X167526466Y-88786443D01*
X167356627Y-88837963D01*
X167290443Y-88844481D01*
X167224260Y-88851000D01*
X167135740Y-88851000D01*
X167069557Y-88844481D01*
X167003373Y-88837963D01*
X166833534Y-88786443D01*
X166677009Y-88702778D01*
X166641271Y-88673448D01*
X166539814Y-88590186D01*
X166456552Y-88488729D01*
X166427222Y-88452991D01*
X166343557Y-88296466D01*
X166292037Y-88126627D01*
X166274641Y-87950000D01*
X166292037Y-87773373D01*
X166343557Y-87603534D01*
X166427222Y-87447009D01*
X166456552Y-87411271D01*
X166539814Y-87309814D01*
X166641271Y-87226552D01*
X166677009Y-87197222D01*
X166833534Y-87113557D01*
X167003373Y-87062037D01*
X167069557Y-87055519D01*
X167135740Y-87049000D01*
X167224260Y-87049000D01*
X167290443Y-87055519D01*
X167290443Y-87055519D01*
G37*
G36*
X169830443Y-87055519D02*
G01*
X169896627Y-87062037D01*
X170066466Y-87113557D01*
X170222991Y-87197222D01*
X170258729Y-87226552D01*
X170360186Y-87309814D01*
X170443448Y-87411271D01*
X170472778Y-87447009D01*
X170556443Y-87603534D01*
X170607963Y-87773373D01*
X170625359Y-87950000D01*
X170607963Y-88126627D01*
X170556443Y-88296466D01*
X170472778Y-88452991D01*
X170443448Y-88488729D01*
X170360186Y-88590186D01*
X170258729Y-88673448D01*
X170222991Y-88702778D01*
X170066466Y-88786443D01*
X169896627Y-88837963D01*
X169830443Y-88844481D01*
X169764260Y-88851000D01*
X169675740Y-88851000D01*
X169609557Y-88844481D01*
X169543373Y-88837963D01*
X169373534Y-88786443D01*
X169217009Y-88702778D01*
X169181271Y-88673448D01*
X169079814Y-88590186D01*
X168996552Y-88488729D01*
X168967222Y-88452991D01*
X168883557Y-88296466D01*
X168832037Y-88126627D01*
X168814641Y-87950000D01*
X168832037Y-87773373D01*
X168883557Y-87603534D01*
X168967222Y-87447009D01*
X168996552Y-87411271D01*
X169079814Y-87309814D01*
X169181271Y-87226552D01*
X169217009Y-87197222D01*
X169373534Y-87113557D01*
X169543373Y-87062037D01*
X169609557Y-87055519D01*
X169675740Y-87049000D01*
X169764260Y-87049000D01*
X169830443Y-87055519D01*
X169830443Y-87055519D01*
G37*
G36*
X172370443Y-87055519D02*
G01*
X172436627Y-87062037D01*
X172606466Y-87113557D01*
X172762991Y-87197222D01*
X172798729Y-87226552D01*
X172900186Y-87309814D01*
X172983448Y-87411271D01*
X173012778Y-87447009D01*
X173096443Y-87603534D01*
X173147963Y-87773373D01*
X173165359Y-87950000D01*
X173147963Y-88126627D01*
X173096443Y-88296466D01*
X173012778Y-88452991D01*
X172983448Y-88488729D01*
X172900186Y-88590186D01*
X172798729Y-88673448D01*
X172762991Y-88702778D01*
X172606466Y-88786443D01*
X172436627Y-88837963D01*
X172370442Y-88844482D01*
X172304260Y-88851000D01*
X172215740Y-88851000D01*
X172149557Y-88844481D01*
X172083373Y-88837963D01*
X171913534Y-88786443D01*
X171757009Y-88702778D01*
X171721271Y-88673448D01*
X171619814Y-88590186D01*
X171536552Y-88488729D01*
X171507222Y-88452991D01*
X171423557Y-88296466D01*
X171372037Y-88126627D01*
X171354641Y-87950000D01*
X171372037Y-87773373D01*
X171423557Y-87603534D01*
X171507222Y-87447009D01*
X171536552Y-87411271D01*
X171619814Y-87309814D01*
X171721271Y-87226552D01*
X171757009Y-87197222D01*
X171913534Y-87113557D01*
X172083373Y-87062037D01*
X172149557Y-87055519D01*
X172215740Y-87049000D01*
X172304260Y-87049000D01*
X172370443Y-87055519D01*
X172370443Y-87055519D01*
G37*
G36*
X174910443Y-87055519D02*
G01*
X174976627Y-87062037D01*
X175146466Y-87113557D01*
X175302991Y-87197222D01*
X175338729Y-87226552D01*
X175440186Y-87309814D01*
X175523448Y-87411271D01*
X175552778Y-87447009D01*
X175636443Y-87603534D01*
X175687963Y-87773373D01*
X175705359Y-87950000D01*
X175687963Y-88126627D01*
X175636443Y-88296466D01*
X175552778Y-88452991D01*
X175523448Y-88488729D01*
X175440186Y-88590186D01*
X175338729Y-88673448D01*
X175302991Y-88702778D01*
X175146466Y-88786443D01*
X174976627Y-88837963D01*
X174910442Y-88844482D01*
X174844260Y-88851000D01*
X174755740Y-88851000D01*
X174689557Y-88844481D01*
X174623373Y-88837963D01*
X174453534Y-88786443D01*
X174297009Y-88702778D01*
X174261271Y-88673448D01*
X174159814Y-88590186D01*
X174076552Y-88488729D01*
X174047222Y-88452991D01*
X173963557Y-88296466D01*
X173912037Y-88126627D01*
X173894641Y-87950000D01*
X173912037Y-87773373D01*
X173963557Y-87603534D01*
X174047222Y-87447009D01*
X174076552Y-87411271D01*
X174159814Y-87309814D01*
X174261271Y-87226552D01*
X174297009Y-87197222D01*
X174453534Y-87113557D01*
X174623373Y-87062037D01*
X174689557Y-87055519D01*
X174755740Y-87049000D01*
X174844260Y-87049000D01*
X174910443Y-87055519D01*
X174910443Y-87055519D01*
G37*
G36*
X177450443Y-87055519D02*
G01*
X177516627Y-87062037D01*
X177686466Y-87113557D01*
X177842991Y-87197222D01*
X177878729Y-87226552D01*
X177980186Y-87309814D01*
X178063448Y-87411271D01*
X178092778Y-87447009D01*
X178176443Y-87603534D01*
X178227963Y-87773373D01*
X178245359Y-87950000D01*
X178227963Y-88126627D01*
X178176443Y-88296466D01*
X178092778Y-88452991D01*
X178063448Y-88488729D01*
X177980186Y-88590186D01*
X177878729Y-88673448D01*
X177842991Y-88702778D01*
X177686466Y-88786443D01*
X177516627Y-88837963D01*
X177450442Y-88844482D01*
X177384260Y-88851000D01*
X177295740Y-88851000D01*
X177229557Y-88844481D01*
X177163373Y-88837963D01*
X176993534Y-88786443D01*
X176837009Y-88702778D01*
X176801271Y-88673448D01*
X176699814Y-88590186D01*
X176616552Y-88488729D01*
X176587222Y-88452991D01*
X176503557Y-88296466D01*
X176452037Y-88126627D01*
X176434641Y-87950000D01*
X176452037Y-87773373D01*
X176503557Y-87603534D01*
X176587222Y-87447009D01*
X176616552Y-87411271D01*
X176699814Y-87309814D01*
X176801271Y-87226552D01*
X176837009Y-87197222D01*
X176993534Y-87113557D01*
X177163373Y-87062037D01*
X177229557Y-87055519D01*
X177295740Y-87049000D01*
X177384260Y-87049000D01*
X177450443Y-87055519D01*
X177450443Y-87055519D01*
G37*
G36*
X177450442Y-84515518D02*
G01*
X177516627Y-84522037D01*
X177686466Y-84573557D01*
X177842991Y-84657222D01*
X177878729Y-84686552D01*
X177980186Y-84769814D01*
X178063448Y-84871271D01*
X178092778Y-84907009D01*
X178176443Y-85063534D01*
X178227963Y-85233373D01*
X178245359Y-85410000D01*
X178227963Y-85586627D01*
X178176443Y-85756466D01*
X178092778Y-85912991D01*
X178063448Y-85948729D01*
X177980186Y-86050186D01*
X177878729Y-86133448D01*
X177842991Y-86162778D01*
X177686466Y-86246443D01*
X177516627Y-86297963D01*
X177450442Y-86304482D01*
X177384260Y-86311000D01*
X177295740Y-86311000D01*
X177229558Y-86304482D01*
X177163373Y-86297963D01*
X176993534Y-86246443D01*
X176837009Y-86162778D01*
X176801271Y-86133448D01*
X176699814Y-86050186D01*
X176616552Y-85948729D01*
X176587222Y-85912991D01*
X176503557Y-85756466D01*
X176452037Y-85586627D01*
X176434641Y-85410000D01*
X176452037Y-85233373D01*
X176503557Y-85063534D01*
X176587222Y-84907009D01*
X176616552Y-84871271D01*
X176699814Y-84769814D01*
X176801271Y-84686552D01*
X176837009Y-84657222D01*
X176993534Y-84573557D01*
X177163373Y-84522037D01*
X177229558Y-84515518D01*
X177295740Y-84509000D01*
X177384260Y-84509000D01*
X177450442Y-84515518D01*
X177450442Y-84515518D01*
G37*
G36*
X124110442Y-84515518D02*
G01*
X124176627Y-84522037D01*
X124346466Y-84573557D01*
X124502991Y-84657222D01*
X124538729Y-84686552D01*
X124640186Y-84769814D01*
X124723448Y-84871271D01*
X124752778Y-84907009D01*
X124836443Y-85063534D01*
X124887963Y-85233373D01*
X124905359Y-85410000D01*
X124887963Y-85586627D01*
X124836443Y-85756466D01*
X124752778Y-85912991D01*
X124723448Y-85948729D01*
X124640186Y-86050186D01*
X124538729Y-86133448D01*
X124502991Y-86162778D01*
X124346466Y-86246443D01*
X124176627Y-86297963D01*
X124110442Y-86304482D01*
X124044260Y-86311000D01*
X123955740Y-86311000D01*
X123889558Y-86304482D01*
X123823373Y-86297963D01*
X123653534Y-86246443D01*
X123497009Y-86162778D01*
X123461271Y-86133448D01*
X123359814Y-86050186D01*
X123276552Y-85948729D01*
X123247222Y-85912991D01*
X123163557Y-85756466D01*
X123112037Y-85586627D01*
X123094641Y-85410000D01*
X123112037Y-85233373D01*
X123163557Y-85063534D01*
X123247222Y-84907009D01*
X123276552Y-84871271D01*
X123359814Y-84769814D01*
X123461271Y-84686552D01*
X123497009Y-84657222D01*
X123653534Y-84573557D01*
X123823373Y-84522037D01*
X123889558Y-84515518D01*
X123955740Y-84509000D01*
X124044260Y-84509000D01*
X124110442Y-84515518D01*
X124110442Y-84515518D01*
G37*
G36*
X174910442Y-84515518D02*
G01*
X174976627Y-84522037D01*
X175146466Y-84573557D01*
X175302991Y-84657222D01*
X175338729Y-84686552D01*
X175440186Y-84769814D01*
X175523448Y-84871271D01*
X175552778Y-84907009D01*
X175636443Y-85063534D01*
X175687963Y-85233373D01*
X175705359Y-85410000D01*
X175687963Y-85586627D01*
X175636443Y-85756466D01*
X175552778Y-85912991D01*
X175523448Y-85948729D01*
X175440186Y-86050186D01*
X175338729Y-86133448D01*
X175302991Y-86162778D01*
X175146466Y-86246443D01*
X174976627Y-86297963D01*
X174910442Y-86304482D01*
X174844260Y-86311000D01*
X174755740Y-86311000D01*
X174689558Y-86304482D01*
X174623373Y-86297963D01*
X174453534Y-86246443D01*
X174297009Y-86162778D01*
X174261271Y-86133448D01*
X174159814Y-86050186D01*
X174076552Y-85948729D01*
X174047222Y-85912991D01*
X173963557Y-85756466D01*
X173912037Y-85586627D01*
X173894641Y-85410000D01*
X173912037Y-85233373D01*
X173963557Y-85063534D01*
X174047222Y-84907009D01*
X174076552Y-84871271D01*
X174159814Y-84769814D01*
X174261271Y-84686552D01*
X174297009Y-84657222D01*
X174453534Y-84573557D01*
X174623373Y-84522037D01*
X174689558Y-84515518D01*
X174755740Y-84509000D01*
X174844260Y-84509000D01*
X174910442Y-84515518D01*
X174910442Y-84515518D01*
G37*
G36*
X126650442Y-84515518D02*
G01*
X126716627Y-84522037D01*
X126886466Y-84573557D01*
X127042991Y-84657222D01*
X127078729Y-84686552D01*
X127180186Y-84769814D01*
X127263448Y-84871271D01*
X127292778Y-84907009D01*
X127376443Y-85063534D01*
X127427963Y-85233373D01*
X127445359Y-85410000D01*
X127427963Y-85586627D01*
X127376443Y-85756466D01*
X127292778Y-85912991D01*
X127263448Y-85948729D01*
X127180186Y-86050186D01*
X127078729Y-86133448D01*
X127042991Y-86162778D01*
X126886466Y-86246443D01*
X126716627Y-86297963D01*
X126650442Y-86304482D01*
X126584260Y-86311000D01*
X126495740Y-86311000D01*
X126429558Y-86304482D01*
X126363373Y-86297963D01*
X126193534Y-86246443D01*
X126037009Y-86162778D01*
X126001271Y-86133448D01*
X125899814Y-86050186D01*
X125816552Y-85948729D01*
X125787222Y-85912991D01*
X125703557Y-85756466D01*
X125652037Y-85586627D01*
X125634641Y-85410000D01*
X125652037Y-85233373D01*
X125703557Y-85063534D01*
X125787222Y-84907009D01*
X125816552Y-84871271D01*
X125899814Y-84769814D01*
X126001271Y-84686552D01*
X126037009Y-84657222D01*
X126193534Y-84573557D01*
X126363373Y-84522037D01*
X126429558Y-84515518D01*
X126495740Y-84509000D01*
X126584260Y-84509000D01*
X126650442Y-84515518D01*
X126650442Y-84515518D01*
G37*
G36*
X172370442Y-84515518D02*
G01*
X172436627Y-84522037D01*
X172606466Y-84573557D01*
X172762991Y-84657222D01*
X172798729Y-84686552D01*
X172900186Y-84769814D01*
X172983448Y-84871271D01*
X173012778Y-84907009D01*
X173096443Y-85063534D01*
X173147963Y-85233373D01*
X173165359Y-85410000D01*
X173147963Y-85586627D01*
X173096443Y-85756466D01*
X173012778Y-85912991D01*
X172983448Y-85948729D01*
X172900186Y-86050186D01*
X172798729Y-86133448D01*
X172762991Y-86162778D01*
X172606466Y-86246443D01*
X172436627Y-86297963D01*
X172370442Y-86304482D01*
X172304260Y-86311000D01*
X172215740Y-86311000D01*
X172149558Y-86304482D01*
X172083373Y-86297963D01*
X171913534Y-86246443D01*
X171757009Y-86162778D01*
X171721271Y-86133448D01*
X171619814Y-86050186D01*
X171536552Y-85948729D01*
X171507222Y-85912991D01*
X171423557Y-85756466D01*
X171372037Y-85586627D01*
X171354641Y-85410000D01*
X171372037Y-85233373D01*
X171423557Y-85063534D01*
X171507222Y-84907009D01*
X171536552Y-84871271D01*
X171619814Y-84769814D01*
X171721271Y-84686552D01*
X171757009Y-84657222D01*
X171913534Y-84573557D01*
X172083373Y-84522037D01*
X172149558Y-84515518D01*
X172215740Y-84509000D01*
X172304260Y-84509000D01*
X172370442Y-84515518D01*
X172370442Y-84515518D01*
G37*
G36*
X129190442Y-84515518D02*
G01*
X129256627Y-84522037D01*
X129426466Y-84573557D01*
X129582991Y-84657222D01*
X129618729Y-84686552D01*
X129720186Y-84769814D01*
X129803448Y-84871271D01*
X129832778Y-84907009D01*
X129916443Y-85063534D01*
X129967963Y-85233373D01*
X129985359Y-85410000D01*
X129967963Y-85586627D01*
X129916443Y-85756466D01*
X129832778Y-85912991D01*
X129803448Y-85948729D01*
X129720186Y-86050186D01*
X129618729Y-86133448D01*
X129582991Y-86162778D01*
X129426466Y-86246443D01*
X129256627Y-86297963D01*
X129190442Y-86304482D01*
X129124260Y-86311000D01*
X129035740Y-86311000D01*
X128969558Y-86304482D01*
X128903373Y-86297963D01*
X128733534Y-86246443D01*
X128577009Y-86162778D01*
X128541271Y-86133448D01*
X128439814Y-86050186D01*
X128356552Y-85948729D01*
X128327222Y-85912991D01*
X128243557Y-85756466D01*
X128192037Y-85586627D01*
X128174641Y-85410000D01*
X128192037Y-85233373D01*
X128243557Y-85063534D01*
X128327222Y-84907009D01*
X128356552Y-84871271D01*
X128439814Y-84769814D01*
X128541271Y-84686552D01*
X128577009Y-84657222D01*
X128733534Y-84573557D01*
X128903373Y-84522037D01*
X128969558Y-84515518D01*
X129035740Y-84509000D01*
X129124260Y-84509000D01*
X129190442Y-84515518D01*
X129190442Y-84515518D01*
G37*
G36*
X169830442Y-84515518D02*
G01*
X169896627Y-84522037D01*
X170066466Y-84573557D01*
X170222991Y-84657222D01*
X170258729Y-84686552D01*
X170360186Y-84769814D01*
X170443448Y-84871271D01*
X170472778Y-84907009D01*
X170556443Y-85063534D01*
X170607963Y-85233373D01*
X170625359Y-85410000D01*
X170607963Y-85586627D01*
X170556443Y-85756466D01*
X170472778Y-85912991D01*
X170443448Y-85948729D01*
X170360186Y-86050186D01*
X170258729Y-86133448D01*
X170222991Y-86162778D01*
X170066466Y-86246443D01*
X169896627Y-86297963D01*
X169830442Y-86304482D01*
X169764260Y-86311000D01*
X169675740Y-86311000D01*
X169609558Y-86304482D01*
X169543373Y-86297963D01*
X169373534Y-86246443D01*
X169217009Y-86162778D01*
X169181271Y-86133448D01*
X169079814Y-86050186D01*
X168996552Y-85948729D01*
X168967222Y-85912991D01*
X168883557Y-85756466D01*
X168832037Y-85586627D01*
X168814641Y-85410000D01*
X168832037Y-85233373D01*
X168883557Y-85063534D01*
X168967222Y-84907009D01*
X168996552Y-84871271D01*
X169079814Y-84769814D01*
X169181271Y-84686552D01*
X169217009Y-84657222D01*
X169373534Y-84573557D01*
X169543373Y-84522037D01*
X169609558Y-84515518D01*
X169675740Y-84509000D01*
X169764260Y-84509000D01*
X169830442Y-84515518D01*
X169830442Y-84515518D01*
G37*
G36*
X131730442Y-84515518D02*
G01*
X131796627Y-84522037D01*
X131966466Y-84573557D01*
X132122991Y-84657222D01*
X132158729Y-84686552D01*
X132260186Y-84769814D01*
X132343448Y-84871271D01*
X132372778Y-84907009D01*
X132456443Y-85063534D01*
X132507963Y-85233373D01*
X132525359Y-85410000D01*
X132507963Y-85586627D01*
X132456443Y-85756466D01*
X132372778Y-85912991D01*
X132343448Y-85948729D01*
X132260186Y-86050186D01*
X132158729Y-86133448D01*
X132122991Y-86162778D01*
X131966466Y-86246443D01*
X131796627Y-86297963D01*
X131730442Y-86304482D01*
X131664260Y-86311000D01*
X131575740Y-86311000D01*
X131509558Y-86304482D01*
X131443373Y-86297963D01*
X131273534Y-86246443D01*
X131117009Y-86162778D01*
X131081271Y-86133448D01*
X130979814Y-86050186D01*
X130896552Y-85948729D01*
X130867222Y-85912991D01*
X130783557Y-85756466D01*
X130732037Y-85586627D01*
X130714641Y-85410000D01*
X130732037Y-85233373D01*
X130783557Y-85063534D01*
X130867222Y-84907009D01*
X130896552Y-84871271D01*
X130979814Y-84769814D01*
X131081271Y-84686552D01*
X131117009Y-84657222D01*
X131273534Y-84573557D01*
X131443373Y-84522037D01*
X131509558Y-84515518D01*
X131575740Y-84509000D01*
X131664260Y-84509000D01*
X131730442Y-84515518D01*
X131730442Y-84515518D01*
G37*
G36*
X167290442Y-84515518D02*
G01*
X167356627Y-84522037D01*
X167526466Y-84573557D01*
X167682991Y-84657222D01*
X167718729Y-84686552D01*
X167820186Y-84769814D01*
X167903448Y-84871271D01*
X167932778Y-84907009D01*
X168016443Y-85063534D01*
X168067963Y-85233373D01*
X168085359Y-85410000D01*
X168067963Y-85586627D01*
X168016443Y-85756466D01*
X167932778Y-85912991D01*
X167903448Y-85948729D01*
X167820186Y-86050186D01*
X167718729Y-86133448D01*
X167682991Y-86162778D01*
X167526466Y-86246443D01*
X167356627Y-86297963D01*
X167290442Y-86304482D01*
X167224260Y-86311000D01*
X167135740Y-86311000D01*
X167069558Y-86304482D01*
X167003373Y-86297963D01*
X166833534Y-86246443D01*
X166677009Y-86162778D01*
X166641271Y-86133448D01*
X166539814Y-86050186D01*
X166456552Y-85948729D01*
X166427222Y-85912991D01*
X166343557Y-85756466D01*
X166292037Y-85586627D01*
X166274641Y-85410000D01*
X166292037Y-85233373D01*
X166343557Y-85063534D01*
X166427222Y-84907009D01*
X166456552Y-84871271D01*
X166539814Y-84769814D01*
X166641271Y-84686552D01*
X166677009Y-84657222D01*
X166833534Y-84573557D01*
X167003373Y-84522037D01*
X167069558Y-84515518D01*
X167135740Y-84509000D01*
X167224260Y-84509000D01*
X167290442Y-84515518D01*
X167290442Y-84515518D01*
G37*
G36*
X134270442Y-84515518D02*
G01*
X134336627Y-84522037D01*
X134506466Y-84573557D01*
X134662991Y-84657222D01*
X134698729Y-84686552D01*
X134800186Y-84769814D01*
X134883448Y-84871271D01*
X134912778Y-84907009D01*
X134996443Y-85063534D01*
X135047963Y-85233373D01*
X135065359Y-85410000D01*
X135047963Y-85586627D01*
X134996443Y-85756466D01*
X134912778Y-85912991D01*
X134883448Y-85948729D01*
X134800186Y-86050186D01*
X134698729Y-86133448D01*
X134662991Y-86162778D01*
X134506466Y-86246443D01*
X134336627Y-86297963D01*
X134270442Y-86304482D01*
X134204260Y-86311000D01*
X134115740Y-86311000D01*
X134049558Y-86304482D01*
X133983373Y-86297963D01*
X133813534Y-86246443D01*
X133657009Y-86162778D01*
X133621271Y-86133448D01*
X133519814Y-86050186D01*
X133436552Y-85948729D01*
X133407222Y-85912991D01*
X133323557Y-85756466D01*
X133272037Y-85586627D01*
X133254641Y-85410000D01*
X133272037Y-85233373D01*
X133323557Y-85063534D01*
X133407222Y-84907009D01*
X133436552Y-84871271D01*
X133519814Y-84769814D01*
X133621271Y-84686552D01*
X133657009Y-84657222D01*
X133813534Y-84573557D01*
X133983373Y-84522037D01*
X134049558Y-84515518D01*
X134115740Y-84509000D01*
X134204260Y-84509000D01*
X134270442Y-84515518D01*
X134270442Y-84515518D01*
G37*
G36*
X164750442Y-84515518D02*
G01*
X164816627Y-84522037D01*
X164986466Y-84573557D01*
X165142991Y-84657222D01*
X165178729Y-84686552D01*
X165280186Y-84769814D01*
X165363448Y-84871271D01*
X165392778Y-84907009D01*
X165476443Y-85063534D01*
X165527963Y-85233373D01*
X165545359Y-85410000D01*
X165527963Y-85586627D01*
X165476443Y-85756466D01*
X165392778Y-85912991D01*
X165363448Y-85948729D01*
X165280186Y-86050186D01*
X165178729Y-86133448D01*
X165142991Y-86162778D01*
X164986466Y-86246443D01*
X164816627Y-86297963D01*
X164750442Y-86304482D01*
X164684260Y-86311000D01*
X164595740Y-86311000D01*
X164529558Y-86304482D01*
X164463373Y-86297963D01*
X164293534Y-86246443D01*
X164137009Y-86162778D01*
X164101271Y-86133448D01*
X163999814Y-86050186D01*
X163916552Y-85948729D01*
X163887222Y-85912991D01*
X163803557Y-85756466D01*
X163752037Y-85586627D01*
X163734641Y-85410000D01*
X163752037Y-85233373D01*
X163803557Y-85063534D01*
X163887222Y-84907009D01*
X163916552Y-84871271D01*
X163999814Y-84769814D01*
X164101271Y-84686552D01*
X164137009Y-84657222D01*
X164293534Y-84573557D01*
X164463373Y-84522037D01*
X164529558Y-84515518D01*
X164595740Y-84509000D01*
X164684260Y-84509000D01*
X164750442Y-84515518D01*
X164750442Y-84515518D01*
G37*
G36*
X136810442Y-84515518D02*
G01*
X136876627Y-84522037D01*
X137046466Y-84573557D01*
X137202991Y-84657222D01*
X137238729Y-84686552D01*
X137340186Y-84769814D01*
X137423448Y-84871271D01*
X137452778Y-84907009D01*
X137536443Y-85063534D01*
X137587963Y-85233373D01*
X137605359Y-85410000D01*
X137587963Y-85586627D01*
X137536443Y-85756466D01*
X137452778Y-85912991D01*
X137423448Y-85948729D01*
X137340186Y-86050186D01*
X137238729Y-86133448D01*
X137202991Y-86162778D01*
X137046466Y-86246443D01*
X136876627Y-86297963D01*
X136810442Y-86304482D01*
X136744260Y-86311000D01*
X136655740Y-86311000D01*
X136589558Y-86304482D01*
X136523373Y-86297963D01*
X136353534Y-86246443D01*
X136197009Y-86162778D01*
X136161271Y-86133448D01*
X136059814Y-86050186D01*
X135976552Y-85948729D01*
X135947222Y-85912991D01*
X135863557Y-85756466D01*
X135812037Y-85586627D01*
X135794641Y-85410000D01*
X135812037Y-85233373D01*
X135863557Y-85063534D01*
X135947222Y-84907009D01*
X135976552Y-84871271D01*
X136059814Y-84769814D01*
X136161271Y-84686552D01*
X136197009Y-84657222D01*
X136353534Y-84573557D01*
X136523373Y-84522037D01*
X136589558Y-84515518D01*
X136655740Y-84509000D01*
X136744260Y-84509000D01*
X136810442Y-84515518D01*
X136810442Y-84515518D01*
G37*
G36*
X162210442Y-84515518D02*
G01*
X162276627Y-84522037D01*
X162446466Y-84573557D01*
X162602991Y-84657222D01*
X162638729Y-84686552D01*
X162740186Y-84769814D01*
X162823448Y-84871271D01*
X162852778Y-84907009D01*
X162936443Y-85063534D01*
X162987963Y-85233373D01*
X163005359Y-85410000D01*
X162987963Y-85586627D01*
X162936443Y-85756466D01*
X162852778Y-85912991D01*
X162823448Y-85948729D01*
X162740186Y-86050186D01*
X162638729Y-86133448D01*
X162602991Y-86162778D01*
X162446466Y-86246443D01*
X162276627Y-86297963D01*
X162210442Y-86304482D01*
X162144260Y-86311000D01*
X162055740Y-86311000D01*
X161989558Y-86304482D01*
X161923373Y-86297963D01*
X161753534Y-86246443D01*
X161597009Y-86162778D01*
X161561271Y-86133448D01*
X161459814Y-86050186D01*
X161376552Y-85948729D01*
X161347222Y-85912991D01*
X161263557Y-85756466D01*
X161212037Y-85586627D01*
X161194641Y-85410000D01*
X161212037Y-85233373D01*
X161263557Y-85063534D01*
X161347222Y-84907009D01*
X161376552Y-84871271D01*
X161459814Y-84769814D01*
X161561271Y-84686552D01*
X161597009Y-84657222D01*
X161753534Y-84573557D01*
X161923373Y-84522037D01*
X161989558Y-84515518D01*
X162055740Y-84509000D01*
X162144260Y-84509000D01*
X162210442Y-84515518D01*
X162210442Y-84515518D01*
G37*
G36*
X139350442Y-84515518D02*
G01*
X139416627Y-84522037D01*
X139586466Y-84573557D01*
X139742991Y-84657222D01*
X139778729Y-84686552D01*
X139880186Y-84769814D01*
X139963448Y-84871271D01*
X139992778Y-84907009D01*
X140076443Y-85063534D01*
X140127963Y-85233373D01*
X140145359Y-85410000D01*
X140127963Y-85586627D01*
X140076443Y-85756466D01*
X139992778Y-85912991D01*
X139963448Y-85948729D01*
X139880186Y-86050186D01*
X139778729Y-86133448D01*
X139742991Y-86162778D01*
X139586466Y-86246443D01*
X139416627Y-86297963D01*
X139350442Y-86304482D01*
X139284260Y-86311000D01*
X139195740Y-86311000D01*
X139129558Y-86304482D01*
X139063373Y-86297963D01*
X138893534Y-86246443D01*
X138737009Y-86162778D01*
X138701271Y-86133448D01*
X138599814Y-86050186D01*
X138516552Y-85948729D01*
X138487222Y-85912991D01*
X138403557Y-85756466D01*
X138352037Y-85586627D01*
X138334641Y-85410000D01*
X138352037Y-85233373D01*
X138403557Y-85063534D01*
X138487222Y-84907009D01*
X138516552Y-84871271D01*
X138599814Y-84769814D01*
X138701271Y-84686552D01*
X138737009Y-84657222D01*
X138893534Y-84573557D01*
X139063373Y-84522037D01*
X139129558Y-84515518D01*
X139195740Y-84509000D01*
X139284260Y-84509000D01*
X139350442Y-84515518D01*
X139350442Y-84515518D01*
G37*
G36*
X159670442Y-84515518D02*
G01*
X159736627Y-84522037D01*
X159906466Y-84573557D01*
X160062991Y-84657222D01*
X160098729Y-84686552D01*
X160200186Y-84769814D01*
X160283448Y-84871271D01*
X160312778Y-84907009D01*
X160396443Y-85063534D01*
X160447963Y-85233373D01*
X160465359Y-85410000D01*
X160447963Y-85586627D01*
X160396443Y-85756466D01*
X160312778Y-85912991D01*
X160283448Y-85948729D01*
X160200186Y-86050186D01*
X160098729Y-86133448D01*
X160062991Y-86162778D01*
X159906466Y-86246443D01*
X159736627Y-86297963D01*
X159670442Y-86304482D01*
X159604260Y-86311000D01*
X159515740Y-86311000D01*
X159449558Y-86304482D01*
X159383373Y-86297963D01*
X159213534Y-86246443D01*
X159057009Y-86162778D01*
X159021271Y-86133448D01*
X158919814Y-86050186D01*
X158836552Y-85948729D01*
X158807222Y-85912991D01*
X158723557Y-85756466D01*
X158672037Y-85586627D01*
X158654641Y-85410000D01*
X158672037Y-85233373D01*
X158723557Y-85063534D01*
X158807222Y-84907009D01*
X158836552Y-84871271D01*
X158919814Y-84769814D01*
X159021271Y-84686552D01*
X159057009Y-84657222D01*
X159213534Y-84573557D01*
X159383373Y-84522037D01*
X159449558Y-84515518D01*
X159515740Y-84509000D01*
X159604260Y-84509000D01*
X159670442Y-84515518D01*
X159670442Y-84515518D01*
G37*
G36*
X141890442Y-84515518D02*
G01*
X141956627Y-84522037D01*
X142126466Y-84573557D01*
X142282991Y-84657222D01*
X142318729Y-84686552D01*
X142420186Y-84769814D01*
X142503448Y-84871271D01*
X142532778Y-84907009D01*
X142616443Y-85063534D01*
X142667963Y-85233373D01*
X142685359Y-85410000D01*
X142667963Y-85586627D01*
X142616443Y-85756466D01*
X142532778Y-85912991D01*
X142503448Y-85948729D01*
X142420186Y-86050186D01*
X142318729Y-86133448D01*
X142282991Y-86162778D01*
X142126466Y-86246443D01*
X141956627Y-86297963D01*
X141890442Y-86304482D01*
X141824260Y-86311000D01*
X141735740Y-86311000D01*
X141669558Y-86304482D01*
X141603373Y-86297963D01*
X141433534Y-86246443D01*
X141277009Y-86162778D01*
X141241271Y-86133448D01*
X141139814Y-86050186D01*
X141056552Y-85948729D01*
X141027222Y-85912991D01*
X140943557Y-85756466D01*
X140892037Y-85586627D01*
X140874641Y-85410000D01*
X140892037Y-85233373D01*
X140943557Y-85063534D01*
X141027222Y-84907009D01*
X141056552Y-84871271D01*
X141139814Y-84769814D01*
X141241271Y-84686552D01*
X141277009Y-84657222D01*
X141433534Y-84573557D01*
X141603373Y-84522037D01*
X141669558Y-84515518D01*
X141735740Y-84509000D01*
X141824260Y-84509000D01*
X141890442Y-84515518D01*
X141890442Y-84515518D01*
G37*
G36*
X157130442Y-84515518D02*
G01*
X157196627Y-84522037D01*
X157366466Y-84573557D01*
X157522991Y-84657222D01*
X157558729Y-84686552D01*
X157660186Y-84769814D01*
X157743448Y-84871271D01*
X157772778Y-84907009D01*
X157856443Y-85063534D01*
X157907963Y-85233373D01*
X157925359Y-85410000D01*
X157907963Y-85586627D01*
X157856443Y-85756466D01*
X157772778Y-85912991D01*
X157743448Y-85948729D01*
X157660186Y-86050186D01*
X157558729Y-86133448D01*
X157522991Y-86162778D01*
X157366466Y-86246443D01*
X157196627Y-86297963D01*
X157130442Y-86304482D01*
X157064260Y-86311000D01*
X156975740Y-86311000D01*
X156909558Y-86304482D01*
X156843373Y-86297963D01*
X156673534Y-86246443D01*
X156517009Y-86162778D01*
X156481271Y-86133448D01*
X156379814Y-86050186D01*
X156296552Y-85948729D01*
X156267222Y-85912991D01*
X156183557Y-85756466D01*
X156132037Y-85586627D01*
X156114641Y-85410000D01*
X156132037Y-85233373D01*
X156183557Y-85063534D01*
X156267222Y-84907009D01*
X156296552Y-84871271D01*
X156379814Y-84769814D01*
X156481271Y-84686552D01*
X156517009Y-84657222D01*
X156673534Y-84573557D01*
X156843373Y-84522037D01*
X156909558Y-84515518D01*
X156975740Y-84509000D01*
X157064260Y-84509000D01*
X157130442Y-84515518D01*
X157130442Y-84515518D01*
G37*
G36*
X144430442Y-84515518D02*
G01*
X144496627Y-84522037D01*
X144666466Y-84573557D01*
X144822991Y-84657222D01*
X144858729Y-84686552D01*
X144960186Y-84769814D01*
X145043448Y-84871271D01*
X145072778Y-84907009D01*
X145156443Y-85063534D01*
X145207963Y-85233373D01*
X145225359Y-85410000D01*
X145207963Y-85586627D01*
X145156443Y-85756466D01*
X145072778Y-85912991D01*
X145043448Y-85948729D01*
X144960186Y-86050186D01*
X144858729Y-86133448D01*
X144822991Y-86162778D01*
X144666466Y-86246443D01*
X144496627Y-86297963D01*
X144430442Y-86304482D01*
X144364260Y-86311000D01*
X144275740Y-86311000D01*
X144209558Y-86304482D01*
X144143373Y-86297963D01*
X143973534Y-86246443D01*
X143817009Y-86162778D01*
X143781271Y-86133448D01*
X143679814Y-86050186D01*
X143596552Y-85948729D01*
X143567222Y-85912991D01*
X143483557Y-85756466D01*
X143432037Y-85586627D01*
X143414641Y-85410000D01*
X143432037Y-85233373D01*
X143483557Y-85063534D01*
X143567222Y-84907009D01*
X143596552Y-84871271D01*
X143679814Y-84769814D01*
X143781271Y-84686552D01*
X143817009Y-84657222D01*
X143973534Y-84573557D01*
X144143373Y-84522037D01*
X144209558Y-84515518D01*
X144275740Y-84509000D01*
X144364260Y-84509000D01*
X144430442Y-84515518D01*
X144430442Y-84515518D01*
G37*
G36*
X154590442Y-84515518D02*
G01*
X154656627Y-84522037D01*
X154826466Y-84573557D01*
X154982991Y-84657222D01*
X155018729Y-84686552D01*
X155120186Y-84769814D01*
X155203448Y-84871271D01*
X155232778Y-84907009D01*
X155316443Y-85063534D01*
X155367963Y-85233373D01*
X155385359Y-85410000D01*
X155367963Y-85586627D01*
X155316443Y-85756466D01*
X155232778Y-85912991D01*
X155203448Y-85948729D01*
X155120186Y-86050186D01*
X155018729Y-86133448D01*
X154982991Y-86162778D01*
X154826466Y-86246443D01*
X154656627Y-86297963D01*
X154590442Y-86304482D01*
X154524260Y-86311000D01*
X154435740Y-86311000D01*
X154369558Y-86304482D01*
X154303373Y-86297963D01*
X154133534Y-86246443D01*
X153977009Y-86162778D01*
X153941271Y-86133448D01*
X153839814Y-86050186D01*
X153756552Y-85948729D01*
X153727222Y-85912991D01*
X153643557Y-85756466D01*
X153592037Y-85586627D01*
X153574641Y-85410000D01*
X153592037Y-85233373D01*
X153643557Y-85063534D01*
X153727222Y-84907009D01*
X153756552Y-84871271D01*
X153839814Y-84769814D01*
X153941271Y-84686552D01*
X153977009Y-84657222D01*
X154133534Y-84573557D01*
X154303373Y-84522037D01*
X154369558Y-84515518D01*
X154435740Y-84509000D01*
X154524260Y-84509000D01*
X154590442Y-84515518D01*
X154590442Y-84515518D01*
G37*
G36*
X146970442Y-84515518D02*
G01*
X147036627Y-84522037D01*
X147206466Y-84573557D01*
X147362991Y-84657222D01*
X147398729Y-84686552D01*
X147500186Y-84769814D01*
X147583448Y-84871271D01*
X147612778Y-84907009D01*
X147696443Y-85063534D01*
X147747963Y-85233373D01*
X147765359Y-85410000D01*
X147747963Y-85586627D01*
X147696443Y-85756466D01*
X147612778Y-85912991D01*
X147583448Y-85948729D01*
X147500186Y-86050186D01*
X147398729Y-86133448D01*
X147362991Y-86162778D01*
X147206466Y-86246443D01*
X147036627Y-86297963D01*
X146970442Y-86304482D01*
X146904260Y-86311000D01*
X146815740Y-86311000D01*
X146749558Y-86304482D01*
X146683373Y-86297963D01*
X146513534Y-86246443D01*
X146357009Y-86162778D01*
X146321271Y-86133448D01*
X146219814Y-86050186D01*
X146136552Y-85948729D01*
X146107222Y-85912991D01*
X146023557Y-85756466D01*
X145972037Y-85586627D01*
X145954641Y-85410000D01*
X145972037Y-85233373D01*
X146023557Y-85063534D01*
X146107222Y-84907009D01*
X146136552Y-84871271D01*
X146219814Y-84769814D01*
X146321271Y-84686552D01*
X146357009Y-84657222D01*
X146513534Y-84573557D01*
X146683373Y-84522037D01*
X146749558Y-84515518D01*
X146815740Y-84509000D01*
X146904260Y-84509000D01*
X146970442Y-84515518D01*
X146970442Y-84515518D01*
G37*
G36*
X152050442Y-84515518D02*
G01*
X152116627Y-84522037D01*
X152286466Y-84573557D01*
X152442991Y-84657222D01*
X152478729Y-84686552D01*
X152580186Y-84769814D01*
X152663448Y-84871271D01*
X152692778Y-84907009D01*
X152776443Y-85063534D01*
X152827963Y-85233373D01*
X152845359Y-85410000D01*
X152827963Y-85586627D01*
X152776443Y-85756466D01*
X152692778Y-85912991D01*
X152663448Y-85948729D01*
X152580186Y-86050186D01*
X152478729Y-86133448D01*
X152442991Y-86162778D01*
X152286466Y-86246443D01*
X152116627Y-86297963D01*
X152050442Y-86304482D01*
X151984260Y-86311000D01*
X151895740Y-86311000D01*
X151829558Y-86304482D01*
X151763373Y-86297963D01*
X151593534Y-86246443D01*
X151437009Y-86162778D01*
X151401271Y-86133448D01*
X151299814Y-86050186D01*
X151216552Y-85948729D01*
X151187222Y-85912991D01*
X151103557Y-85756466D01*
X151052037Y-85586627D01*
X151034641Y-85410000D01*
X151052037Y-85233373D01*
X151103557Y-85063534D01*
X151187222Y-84907009D01*
X151216552Y-84871271D01*
X151299814Y-84769814D01*
X151401271Y-84686552D01*
X151437009Y-84657222D01*
X151593534Y-84573557D01*
X151763373Y-84522037D01*
X151829558Y-84515518D01*
X151895740Y-84509000D01*
X151984260Y-84509000D01*
X152050442Y-84515518D01*
X152050442Y-84515518D01*
G37*
G36*
X149510442Y-84515518D02*
G01*
X149576627Y-84522037D01*
X149746466Y-84573557D01*
X149902991Y-84657222D01*
X149938729Y-84686552D01*
X150040186Y-84769814D01*
X150123448Y-84871271D01*
X150152778Y-84907009D01*
X150236443Y-85063534D01*
X150287963Y-85233373D01*
X150305359Y-85410000D01*
X150287963Y-85586627D01*
X150236443Y-85756466D01*
X150152778Y-85912991D01*
X150123448Y-85948729D01*
X150040186Y-86050186D01*
X149938729Y-86133448D01*
X149902991Y-86162778D01*
X149746466Y-86246443D01*
X149576627Y-86297963D01*
X149510442Y-86304482D01*
X149444260Y-86311000D01*
X149355740Y-86311000D01*
X149289558Y-86304482D01*
X149223373Y-86297963D01*
X149053534Y-86246443D01*
X148897009Y-86162778D01*
X148861271Y-86133448D01*
X148759814Y-86050186D01*
X148676552Y-85948729D01*
X148647222Y-85912991D01*
X148563557Y-85756466D01*
X148512037Y-85586627D01*
X148494641Y-85410000D01*
X148512037Y-85233373D01*
X148563557Y-85063534D01*
X148647222Y-84907009D01*
X148676552Y-84871271D01*
X148759814Y-84769814D01*
X148861271Y-84686552D01*
X148897009Y-84657222D01*
X149053534Y-84573557D01*
X149223373Y-84522037D01*
X149289558Y-84515518D01*
X149355740Y-84509000D01*
X149444260Y-84509000D01*
X149510442Y-84515518D01*
X149510442Y-84515518D01*
G37*
G36*
X127266000Y-83021000D02*
G01*
X125894000Y-83021000D01*
X125894000Y-71919000D01*
X127266000Y-71919000D01*
X127266000Y-83021000D01*
X127266000Y-83021000D01*
G37*
G36*
X124726000Y-83021000D02*
G01*
X123354000Y-83021000D01*
X123354000Y-71919000D01*
X124726000Y-71919000D01*
X124726000Y-83021000D01*
X124726000Y-83021000D01*
G37*
G36*
X129806000Y-83021000D02*
G01*
X128434000Y-83021000D01*
X128434000Y-71919000D01*
X129806000Y-71919000D01*
X129806000Y-83021000D01*
X129806000Y-83021000D01*
G37*
G36*
X132346000Y-83021000D02*
G01*
X130974000Y-83021000D01*
X130974000Y-71919000D01*
X132346000Y-71919000D01*
X132346000Y-83021000D01*
X132346000Y-83021000D01*
G37*
G36*
X134886000Y-83021000D02*
G01*
X133514000Y-83021000D01*
X133514000Y-71919000D01*
X134886000Y-71919000D01*
X134886000Y-83021000D01*
X134886000Y-83021000D01*
G37*
G36*
X137426000Y-83021000D02*
G01*
X136054000Y-83021000D01*
X136054000Y-71919000D01*
X137426000Y-71919000D01*
X137426000Y-83021000D01*
X137426000Y-83021000D01*
G37*
G36*
X139966000Y-83021000D02*
G01*
X138594000Y-83021000D01*
X138594000Y-71919000D01*
X139966000Y-71919000D01*
X139966000Y-83021000D01*
X139966000Y-83021000D01*
G37*
G36*
X142506000Y-83021000D02*
G01*
X141134000Y-83021000D01*
X141134000Y-71919000D01*
X142506000Y-71919000D01*
X142506000Y-83021000D01*
X142506000Y-83021000D01*
G37*
G36*
X145046000Y-83021000D02*
G01*
X143674000Y-83021000D01*
X143674000Y-71919000D01*
X145046000Y-71919000D01*
X145046000Y-83021000D01*
X145046000Y-83021000D01*
G37*
G36*
X147586000Y-83021000D02*
G01*
X146214000Y-83021000D01*
X146214000Y-71919000D01*
X147586000Y-71919000D01*
X147586000Y-83021000D01*
X147586000Y-83021000D01*
G37*
G36*
X150126000Y-83021000D02*
G01*
X148754000Y-83021000D01*
X148754000Y-71919000D01*
X150126000Y-71919000D01*
X150126000Y-83021000D01*
X150126000Y-83021000D01*
G37*
G36*
X152666000Y-83021000D02*
G01*
X151294000Y-83021000D01*
X151294000Y-71919000D01*
X152666000Y-71919000D01*
X152666000Y-83021000D01*
X152666000Y-83021000D01*
G37*
G36*
X155206000Y-83021000D02*
G01*
X153834000Y-83021000D01*
X153834000Y-71919000D01*
X155206000Y-71919000D01*
X155206000Y-83021000D01*
X155206000Y-83021000D01*
G37*
G36*
X157746000Y-83021000D02*
G01*
X156374000Y-83021000D01*
X156374000Y-71919000D01*
X157746000Y-71919000D01*
X157746000Y-83021000D01*
X157746000Y-83021000D01*
G37*
G36*
X160286000Y-83021000D02*
G01*
X158914000Y-83021000D01*
X158914000Y-71919000D01*
X160286000Y-71919000D01*
X160286000Y-83021000D01*
X160286000Y-83021000D01*
G37*
G36*
X162826000Y-83021000D02*
G01*
X161454000Y-83021000D01*
X161454000Y-71919000D01*
X162826000Y-71919000D01*
X162826000Y-83021000D01*
X162826000Y-83021000D01*
G37*
G36*
X165366000Y-83021000D02*
G01*
X163994000Y-83021000D01*
X163994000Y-71919000D01*
X165366000Y-71919000D01*
X165366000Y-83021000D01*
X165366000Y-83021000D01*
G37*
G36*
X167906000Y-83021000D02*
G01*
X166534000Y-83021000D01*
X166534000Y-71919000D01*
X167906000Y-71919000D01*
X167906000Y-83021000D01*
X167906000Y-83021000D01*
G37*
G36*
X170446000Y-83021000D02*
G01*
X169074000Y-83021000D01*
X169074000Y-71919000D01*
X170446000Y-71919000D01*
X170446000Y-83021000D01*
X170446000Y-83021000D01*
G37*
G36*
X172986000Y-83021000D02*
G01*
X171614000Y-83021000D01*
X171614000Y-71919000D01*
X172986000Y-71919000D01*
X172986000Y-83021000D01*
X172986000Y-83021000D01*
G37*
G36*
X175526000Y-83021000D02*
G01*
X174154000Y-83021000D01*
X174154000Y-71919000D01*
X175526000Y-71919000D01*
X175526000Y-83021000D01*
X175526000Y-83021000D01*
G37*
G36*
X178066000Y-83021000D02*
G01*
X176694000Y-83021000D01*
X176694000Y-71919000D01*
X178066000Y-71919000D01*
X178066000Y-83021000D01*
X178066000Y-83021000D01*
G37*
M02*
