G04 #@! TF.GenerationSoftware,KiCad,Pcbnew,(5.1.2-1)-1*
G04 #@! TF.CreationDate,2022-07-30T23:38:52+02:00*
G04 #@! TF.ProjectId,ElectronBreakOut,456c6563-7472-46f6-9e42-7265616b4f75,rev?*
G04 #@! TF.SameCoordinates,Original*
G04 #@! TF.FileFunction,Legend,Bot*
G04 #@! TF.FilePolarity,Positive*
%FSLAX46Y46*%
G04 Gerber Fmt 4.6, Leading zero omitted, Abs format (unit mm)*
G04 Created by KiCad (PCBNEW (5.1.2-1)-1) date 2022-07-30 23:38:52*
%MOMM*%
%LPD*%
G04 APERTURE LIST*
%ADD10C,0.150000*%
%ADD11C,0.200000*%
G04 APERTURE END LIST*
D10*
X162652380Y-90511904D02*
X162176190Y-90178571D01*
X162652380Y-89940476D02*
X161652380Y-89940476D01*
X161652380Y-90321428D01*
X161700000Y-90416666D01*
X161747619Y-90464285D01*
X161842857Y-90511904D01*
X161985714Y-90511904D01*
X162080952Y-90464285D01*
X162128571Y-90416666D01*
X162176190Y-90321428D01*
X162176190Y-89940476D01*
X161652380Y-91130952D02*
X161652380Y-91321428D01*
X161700000Y-91416666D01*
X161795238Y-91511904D01*
X161985714Y-91559523D01*
X162319047Y-91559523D01*
X162509523Y-91511904D01*
X162604761Y-91416666D01*
X162652380Y-91321428D01*
X162652380Y-91130952D01*
X162604761Y-91035714D01*
X162509523Y-90940476D01*
X162319047Y-90892857D01*
X161985714Y-90892857D01*
X161795238Y-90940476D01*
X161700000Y-91035714D01*
X161652380Y-91130952D01*
X162652380Y-91988095D02*
X161652380Y-91988095D01*
X162366666Y-92321428D01*
X161652380Y-92654761D01*
X162652380Y-92654761D01*
X162747619Y-93797619D02*
X162700000Y-93702380D01*
X162604761Y-93607142D01*
X162461904Y-93464285D01*
X162414285Y-93369047D01*
X162414285Y-93273809D01*
X162652380Y-93321428D02*
X162604761Y-93226190D01*
X162509523Y-93130952D01*
X162319047Y-93083333D01*
X161985714Y-93083333D01*
X161795238Y-93130952D01*
X161700000Y-93226190D01*
X161652380Y-93321428D01*
X161652380Y-93511904D01*
X161700000Y-93607142D01*
X161795238Y-93702380D01*
X161985714Y-93750000D01*
X162319047Y-93750000D01*
X162509523Y-93702380D01*
X162604761Y-93607142D01*
X162652380Y-93511904D01*
X162652380Y-93321428D01*
X162366666Y-94130952D02*
X162366666Y-94607142D01*
X162652380Y-94035714D02*
X161652380Y-94369047D01*
X162652380Y-94702380D01*
X167802380Y-90357142D02*
X167326190Y-90023809D01*
X167802380Y-89785714D02*
X166802380Y-89785714D01*
X166802380Y-90166666D01*
X166850000Y-90261904D01*
X166897619Y-90309523D01*
X166992857Y-90357142D01*
X167135714Y-90357142D01*
X167230952Y-90309523D01*
X167278571Y-90261904D01*
X167326190Y-90166666D01*
X167326190Y-89785714D01*
X166802380Y-90976190D02*
X166802380Y-91166666D01*
X166850000Y-91261904D01*
X166945238Y-91357142D01*
X167135714Y-91404761D01*
X167469047Y-91404761D01*
X167659523Y-91357142D01*
X167754761Y-91261904D01*
X167802380Y-91166666D01*
X167802380Y-90976190D01*
X167754761Y-90880952D01*
X167659523Y-90785714D01*
X167469047Y-90738095D01*
X167135714Y-90738095D01*
X166945238Y-90785714D01*
X166850000Y-90880952D01*
X166802380Y-90976190D01*
X167802380Y-91833333D02*
X166802380Y-91833333D01*
X167516666Y-92166666D01*
X166802380Y-92500000D01*
X167802380Y-92500000D01*
X167754761Y-92928571D02*
X167802380Y-93071428D01*
X167802380Y-93309523D01*
X167754761Y-93404761D01*
X167707142Y-93452380D01*
X167611904Y-93500000D01*
X167516666Y-93500000D01*
X167421428Y-93452380D01*
X167373809Y-93404761D01*
X167326190Y-93309523D01*
X167278571Y-93119047D01*
X167230952Y-93023809D01*
X167183333Y-92976190D01*
X167088095Y-92928571D01*
X166992857Y-92928571D01*
X166897619Y-92976190D01*
X166850000Y-93023809D01*
X166802380Y-93119047D01*
X166802380Y-93357142D01*
X166850000Y-93500000D01*
X166802380Y-93785714D02*
X166802380Y-94357142D01*
X167802380Y-94071428D02*
X166802380Y-94071428D01*
X167278571Y-95023809D02*
X167326190Y-95166666D01*
X167373809Y-95214285D01*
X167469047Y-95261904D01*
X167611904Y-95261904D01*
X167707142Y-95214285D01*
X167754761Y-95166666D01*
X167802380Y-95071428D01*
X167802380Y-94690476D01*
X166802380Y-94690476D01*
X166802380Y-95023809D01*
X166850000Y-95119047D01*
X166897619Y-95166666D01*
X166992857Y-95214285D01*
X167088095Y-95214285D01*
X167183333Y-95166666D01*
X167230952Y-95119047D01*
X167278571Y-95023809D01*
X167278571Y-94690476D01*
X141352380Y-90754761D02*
X142352380Y-89992857D01*
X142352380Y-90278571D02*
X142304761Y-90183333D01*
X142209523Y-90088095D01*
X142019047Y-90040476D01*
X141685714Y-90040476D01*
X141495238Y-90088095D01*
X141400000Y-90183333D01*
X141352380Y-90278571D01*
X141352380Y-90469047D01*
X141400000Y-90564285D01*
X141495238Y-90659523D01*
X141685714Y-90707142D01*
X142019047Y-90707142D01*
X142209523Y-90659523D01*
X142304761Y-90564285D01*
X142352380Y-90469047D01*
X142352380Y-90278571D01*
X141352380Y-91326190D02*
X141352380Y-91421428D01*
X141400000Y-91516666D01*
X141447619Y-91564285D01*
X141542857Y-91611904D01*
X141733333Y-91659523D01*
X141971428Y-91659523D01*
X142161904Y-91611904D01*
X142257142Y-91564285D01*
X142304761Y-91516666D01*
X142352380Y-91421428D01*
X142352380Y-91326190D01*
X142304761Y-91230952D01*
X142257142Y-91183333D01*
X142161904Y-91135714D01*
X141971428Y-91088095D01*
X141733333Y-91088095D01*
X141542857Y-91135714D01*
X141447619Y-91183333D01*
X141400000Y-91230952D01*
X141352380Y-91326190D01*
X150052380Y-90530952D02*
X149576190Y-90197619D01*
X150052380Y-89959523D02*
X149052380Y-89959523D01*
X149052380Y-90340476D01*
X149100000Y-90435714D01*
X149147619Y-90483333D01*
X149242857Y-90530952D01*
X149385714Y-90530952D01*
X149480952Y-90483333D01*
X149528571Y-90435714D01*
X149576190Y-90340476D01*
X149576190Y-89959523D01*
X150052380Y-90959523D02*
X149052380Y-90959523D01*
X149052380Y-91197619D01*
X149100000Y-91340476D01*
X149195238Y-91435714D01*
X149290476Y-91483333D01*
X149480952Y-91530952D01*
X149623809Y-91530952D01*
X149814285Y-91483333D01*
X149909523Y-91435714D01*
X150004761Y-91340476D01*
X150052380Y-91197619D01*
X150052380Y-90959523D01*
X149576190Y-92150000D02*
X150052380Y-92150000D01*
X149052380Y-91816666D02*
X149576190Y-92150000D01*
X149052380Y-92483333D01*
X160152380Y-89909523D02*
X159152380Y-89909523D01*
X159152380Y-90290476D01*
X159200000Y-90385714D01*
X159247619Y-90433333D01*
X159342857Y-90480952D01*
X159485714Y-90480952D01*
X159580952Y-90433333D01*
X159628571Y-90385714D01*
X159676190Y-90290476D01*
X159676190Y-89909523D01*
X159200000Y-91433333D02*
X159152380Y-91338095D01*
X159152380Y-91195238D01*
X159200000Y-91052380D01*
X159295238Y-90957142D01*
X159390476Y-90909523D01*
X159580952Y-90861904D01*
X159723809Y-90861904D01*
X159914285Y-90909523D01*
X160009523Y-90957142D01*
X160104761Y-91052380D01*
X160152380Y-91195238D01*
X160152380Y-91290476D01*
X160104761Y-91433333D01*
X160057142Y-91480952D01*
X159723809Y-91480952D01*
X159723809Y-91290476D01*
X159628571Y-92242857D02*
X159628571Y-91909523D01*
X160152380Y-91909523D02*
X159152380Y-91909523D01*
X159152380Y-92385714D01*
X160152380Y-92766666D02*
X159152380Y-92766666D01*
X159152380Y-93004761D01*
X159200000Y-93147619D01*
X159295238Y-93242857D01*
X159390476Y-93290476D01*
X159580952Y-93338095D01*
X159723809Y-93338095D01*
X159914285Y-93290476D01*
X160009523Y-93242857D01*
X160104761Y-93147619D01*
X160152380Y-93004761D01*
X160152380Y-92766666D01*
X146660714Y-89980952D02*
X147327380Y-89980952D01*
X146755952Y-89980952D02*
X146708333Y-90028571D01*
X146660714Y-90123809D01*
X146660714Y-90266666D01*
X146708333Y-90361904D01*
X146803571Y-90409523D01*
X147327380Y-90409523D01*
X147232142Y-90885714D02*
X147279761Y-90933333D01*
X147327380Y-90885714D01*
X147279761Y-90838095D01*
X147232142Y-90885714D01*
X147327380Y-90885714D01*
X147279761Y-91790476D02*
X147327380Y-91695238D01*
X147327380Y-91504761D01*
X147279761Y-91409523D01*
X147232142Y-91361904D01*
X147136904Y-91314285D01*
X146851190Y-91314285D01*
X146755952Y-91361904D01*
X146708333Y-91409523D01*
X146660714Y-91504761D01*
X146660714Y-91695238D01*
X146708333Y-91790476D01*
X147232142Y-92219047D02*
X147279761Y-92266666D01*
X147327380Y-92219047D01*
X147279761Y-92171428D01*
X147232142Y-92219047D01*
X147327380Y-92219047D01*
X155052380Y-90001190D02*
X154052380Y-90001190D01*
X155052380Y-91048809D02*
X154576190Y-90715476D01*
X155052380Y-90477380D02*
X154052380Y-90477380D01*
X154052380Y-90858333D01*
X154100000Y-90953571D01*
X154147619Y-91001190D01*
X154242857Y-91048809D01*
X154385714Y-91048809D01*
X154480952Y-91001190D01*
X154528571Y-90953571D01*
X154576190Y-90858333D01*
X154576190Y-90477380D01*
X155147619Y-92144047D02*
X155100000Y-92048809D01*
X155004761Y-91953571D01*
X154861904Y-91810714D01*
X154814285Y-91715476D01*
X154814285Y-91620238D01*
X155052380Y-91667857D02*
X155004761Y-91572619D01*
X154909523Y-91477380D01*
X154719047Y-91429761D01*
X154385714Y-91429761D01*
X154195238Y-91477380D01*
X154100000Y-91572619D01*
X154052380Y-91667857D01*
X154052380Y-91858333D01*
X154100000Y-91953571D01*
X154195238Y-92048809D01*
X154385714Y-92096428D01*
X154719047Y-92096428D01*
X154909523Y-92048809D01*
X155004761Y-91953571D01*
X155052380Y-91858333D01*
X155052380Y-91667857D01*
X157627380Y-89984523D02*
X156627380Y-89984523D01*
X156627380Y-90365476D01*
X156675000Y-90460714D01*
X156722619Y-90508333D01*
X156817857Y-90555952D01*
X156960714Y-90555952D01*
X157055952Y-90508333D01*
X157103571Y-90460714D01*
X157151190Y-90365476D01*
X157151190Y-89984523D01*
X156675000Y-91508333D02*
X156627380Y-91413095D01*
X156627380Y-91270238D01*
X156675000Y-91127380D01*
X156770238Y-91032142D01*
X156865476Y-90984523D01*
X157055952Y-90936904D01*
X157198809Y-90936904D01*
X157389285Y-90984523D01*
X157484523Y-91032142D01*
X157579761Y-91127380D01*
X157627380Y-91270238D01*
X157627380Y-91365476D01*
X157579761Y-91508333D01*
X157532142Y-91555952D01*
X157198809Y-91555952D01*
X157198809Y-91365476D01*
X157103571Y-92317857D02*
X157103571Y-91984523D01*
X157627380Y-91984523D02*
X156627380Y-91984523D01*
X156627380Y-92460714D01*
X157532142Y-93413095D02*
X157579761Y-93365476D01*
X157627380Y-93222619D01*
X157627380Y-93127380D01*
X157579761Y-92984523D01*
X157484523Y-92889285D01*
X157389285Y-92841666D01*
X157198809Y-92794047D01*
X157055952Y-92794047D01*
X156865476Y-92841666D01*
X156770238Y-92889285D01*
X156675000Y-92984523D01*
X156627380Y-93127380D01*
X156627380Y-93222619D01*
X156675000Y-93365476D01*
X156722619Y-93413095D01*
X165252380Y-90507142D02*
X165252380Y-89935714D01*
X165252380Y-90221428D02*
X164252380Y-90221428D01*
X164395238Y-90126190D01*
X164490476Y-90030952D01*
X164538095Y-89935714D01*
X164252380Y-91364285D02*
X164252380Y-91173809D01*
X164300000Y-91078571D01*
X164347619Y-91030952D01*
X164490476Y-90935714D01*
X164680952Y-90888095D01*
X165061904Y-90888095D01*
X165157142Y-90935714D01*
X165204761Y-90983333D01*
X165252380Y-91078571D01*
X165252380Y-91269047D01*
X165204761Y-91364285D01*
X165157142Y-91411904D01*
X165061904Y-91459523D01*
X164823809Y-91459523D01*
X164728571Y-91411904D01*
X164680952Y-91364285D01*
X164633333Y-91269047D01*
X164633333Y-91078571D01*
X164680952Y-90983333D01*
X164728571Y-90935714D01*
X164823809Y-90888095D01*
X165252380Y-92650000D02*
X164252380Y-92650000D01*
X164966666Y-92983333D01*
X164252380Y-93316666D01*
X165252380Y-93316666D01*
X165252380Y-93792857D02*
X164252380Y-93792857D01*
X164728571Y-93792857D02*
X164728571Y-94364285D01*
X165252380Y-94364285D02*
X164252380Y-94364285D01*
X164252380Y-94745238D02*
X164252380Y-95411904D01*
X165252380Y-94745238D01*
X165252380Y-95411904D01*
X170254761Y-90058333D02*
X170302380Y-90201190D01*
X170302380Y-90439285D01*
X170254761Y-90534523D01*
X170207142Y-90582142D01*
X170111904Y-90629761D01*
X170016666Y-90629761D01*
X169921428Y-90582142D01*
X169873809Y-90534523D01*
X169826190Y-90439285D01*
X169778571Y-90248809D01*
X169730952Y-90153571D01*
X169683333Y-90105952D01*
X169588095Y-90058333D01*
X169492857Y-90058333D01*
X169397619Y-90105952D01*
X169350000Y-90153571D01*
X169302380Y-90248809D01*
X169302380Y-90486904D01*
X169350000Y-90629761D01*
X169302380Y-91248809D02*
X169302380Y-91439285D01*
X169350000Y-91534523D01*
X169445238Y-91629761D01*
X169635714Y-91677380D01*
X169969047Y-91677380D01*
X170159523Y-91629761D01*
X170254761Y-91534523D01*
X170302380Y-91439285D01*
X170302380Y-91248809D01*
X170254761Y-91153571D01*
X170159523Y-91058333D01*
X169969047Y-91010714D01*
X169635714Y-91010714D01*
X169445238Y-91058333D01*
X169350000Y-91153571D01*
X169302380Y-91248809D01*
X169302380Y-92105952D02*
X170111904Y-92105952D01*
X170207142Y-92153571D01*
X170254761Y-92201190D01*
X170302380Y-92296428D01*
X170302380Y-92486904D01*
X170254761Y-92582142D01*
X170207142Y-92629761D01*
X170111904Y-92677380D01*
X169302380Y-92677380D01*
X170302380Y-93153571D02*
X169302380Y-93153571D01*
X170302380Y-93725000D01*
X169302380Y-93725000D01*
X170302380Y-94201190D02*
X169302380Y-94201190D01*
X169302380Y-94439285D01*
X169350000Y-94582142D01*
X169445238Y-94677380D01*
X169540476Y-94725000D01*
X169730952Y-94772619D01*
X169873809Y-94772619D01*
X170064285Y-94725000D01*
X170159523Y-94677380D01*
X170254761Y-94582142D01*
X170302380Y-94439285D01*
X170302380Y-94201190D01*
X169302380Y-96153571D02*
X169302380Y-96344047D01*
X169350000Y-96439285D01*
X169445238Y-96534523D01*
X169635714Y-96582142D01*
X169969047Y-96582142D01*
X170159523Y-96534523D01*
X170254761Y-96439285D01*
X170302380Y-96344047D01*
X170302380Y-96153571D01*
X170254761Y-96058333D01*
X170159523Y-95963095D01*
X169969047Y-95915476D01*
X169635714Y-95915476D01*
X169445238Y-95963095D01*
X169350000Y-96058333D01*
X169302380Y-96153571D01*
X169302380Y-97010714D02*
X170111904Y-97010714D01*
X170207142Y-97058333D01*
X170254761Y-97105952D01*
X170302380Y-97201190D01*
X170302380Y-97391666D01*
X170254761Y-97486904D01*
X170207142Y-97534523D01*
X170111904Y-97582142D01*
X169302380Y-97582142D01*
X169302380Y-97915476D02*
X169302380Y-98486904D01*
X170302380Y-98201190D02*
X169302380Y-98201190D01*
X146452380Y-81276190D02*
X146452380Y-81466666D01*
X146500000Y-81561904D01*
X146595238Y-81657142D01*
X146785714Y-81704761D01*
X147119047Y-81704761D01*
X147309523Y-81657142D01*
X147404761Y-81561904D01*
X147452380Y-81466666D01*
X147452380Y-81276190D01*
X147404761Y-81180952D01*
X147309523Y-81085714D01*
X147119047Y-81038095D01*
X146785714Y-81038095D01*
X146595238Y-81085714D01*
X146500000Y-81180952D01*
X146452380Y-81276190D01*
X146928571Y-82133333D02*
X146928571Y-82466666D01*
X147452380Y-82609523D02*
X147452380Y-82133333D01*
X146452380Y-82133333D01*
X146452380Y-82609523D01*
X146547619Y-82990476D02*
X146500000Y-83038095D01*
X146452380Y-83133333D01*
X146452380Y-83371428D01*
X146500000Y-83466666D01*
X146547619Y-83514285D01*
X146642857Y-83561904D01*
X146738095Y-83561904D01*
X146880952Y-83514285D01*
X147452380Y-82942857D01*
X147452380Y-83561904D01*
X144927380Y-82111904D02*
X143927380Y-82111904D01*
X143927380Y-82350000D01*
X143975000Y-82492857D01*
X144070238Y-82588095D01*
X144165476Y-82635714D01*
X144355952Y-82683333D01*
X144498809Y-82683333D01*
X144689285Y-82635714D01*
X144784523Y-82588095D01*
X144879761Y-82492857D01*
X144927380Y-82350000D01*
X144927380Y-82111904D01*
X144260714Y-83540476D02*
X144927380Y-83540476D01*
X143879761Y-83302380D02*
X144594047Y-83064285D01*
X144594047Y-83683333D01*
X175279761Y-90100000D02*
X175327380Y-90242857D01*
X175327380Y-90480952D01*
X175279761Y-90576190D01*
X175232142Y-90623809D01*
X175136904Y-90671428D01*
X175041666Y-90671428D01*
X174946428Y-90623809D01*
X174898809Y-90576190D01*
X174851190Y-90480952D01*
X174803571Y-90290476D01*
X174755952Y-90195238D01*
X174708333Y-90147619D01*
X174613095Y-90100000D01*
X174517857Y-90100000D01*
X174422619Y-90147619D01*
X174375000Y-90195238D01*
X174327380Y-90290476D01*
X174327380Y-90528571D01*
X174375000Y-90671428D01*
X174327380Y-91290476D02*
X174327380Y-91480952D01*
X174375000Y-91576190D01*
X174470238Y-91671428D01*
X174660714Y-91719047D01*
X174994047Y-91719047D01*
X175184523Y-91671428D01*
X175279761Y-91576190D01*
X175327380Y-91480952D01*
X175327380Y-91290476D01*
X175279761Y-91195238D01*
X175184523Y-91100000D01*
X174994047Y-91052380D01*
X174660714Y-91052380D01*
X174470238Y-91100000D01*
X174375000Y-91195238D01*
X174327380Y-91290476D01*
X174327380Y-92147619D02*
X175136904Y-92147619D01*
X175232142Y-92195238D01*
X175279761Y-92242857D01*
X175327380Y-92338095D01*
X175327380Y-92528571D01*
X175279761Y-92623809D01*
X175232142Y-92671428D01*
X175136904Y-92719047D01*
X174327380Y-92719047D01*
X175327380Y-93195238D02*
X174327380Y-93195238D01*
X175327380Y-93766666D01*
X174327380Y-93766666D01*
X175327380Y-94242857D02*
X174327380Y-94242857D01*
X174327380Y-94480952D01*
X174375000Y-94623809D01*
X174470238Y-94719047D01*
X174565476Y-94766666D01*
X174755952Y-94814285D01*
X174898809Y-94814285D01*
X175089285Y-94766666D01*
X175184523Y-94719047D01*
X175279761Y-94623809D01*
X175327380Y-94480952D01*
X175327380Y-94242857D01*
X175327380Y-96004761D02*
X174327380Y-96004761D01*
X175327380Y-96480952D02*
X174327380Y-96480952D01*
X175327380Y-97052380D01*
X174327380Y-97052380D01*
X131916666Y-81084523D02*
X131916666Y-81560714D01*
X132202380Y-80989285D02*
X131202380Y-81322619D01*
X132202380Y-81655952D01*
X132202380Y-82513095D02*
X132202380Y-81941666D01*
X132202380Y-82227380D02*
X131202380Y-82227380D01*
X131345238Y-82132142D01*
X131440476Y-82036904D01*
X131488095Y-81941666D01*
X132202380Y-83465476D02*
X132202380Y-82894047D01*
X132202380Y-83179761D02*
X131202380Y-83179761D01*
X131345238Y-83084523D01*
X131440476Y-82989285D01*
X131488095Y-82894047D01*
X142377380Y-82136904D02*
X141377380Y-82136904D01*
X141377380Y-82375000D01*
X141425000Y-82517857D01*
X141520238Y-82613095D01*
X141615476Y-82660714D01*
X141805952Y-82708333D01*
X141948809Y-82708333D01*
X142139285Y-82660714D01*
X142234523Y-82613095D01*
X142329761Y-82517857D01*
X142377380Y-82375000D01*
X142377380Y-82136904D01*
X141377380Y-83613095D02*
X141377380Y-83136904D01*
X141853571Y-83089285D01*
X141805952Y-83136904D01*
X141758333Y-83232142D01*
X141758333Y-83470238D01*
X141805952Y-83565476D01*
X141853571Y-83613095D01*
X141948809Y-83660714D01*
X142186904Y-83660714D01*
X142282142Y-83613095D01*
X142329761Y-83565476D01*
X142377380Y-83470238D01*
X142377380Y-83232142D01*
X142329761Y-83136904D01*
X142282142Y-83089285D01*
X126791666Y-81109523D02*
X126791666Y-81585714D01*
X127077380Y-81014285D02*
X126077380Y-81347619D01*
X127077380Y-81680952D01*
X127077380Y-82538095D02*
X127077380Y-81966666D01*
X127077380Y-82252380D02*
X126077380Y-82252380D01*
X126220238Y-82157142D01*
X126315476Y-82061904D01*
X126363095Y-81966666D01*
X126077380Y-83157142D02*
X126077380Y-83252380D01*
X126125000Y-83347619D01*
X126172619Y-83395238D01*
X126267857Y-83442857D01*
X126458333Y-83490476D01*
X126696428Y-83490476D01*
X126886904Y-83442857D01*
X126982142Y-83395238D01*
X127029761Y-83347619D01*
X127077380Y-83252380D01*
X127077380Y-83157142D01*
X127029761Y-83061904D01*
X126982142Y-83014285D01*
X126886904Y-82966666D01*
X126696428Y-82919047D01*
X126458333Y-82919047D01*
X126267857Y-82966666D01*
X126172619Y-83014285D01*
X126125000Y-83061904D01*
X126077380Y-83157142D01*
X129577380Y-82086904D02*
X128577380Y-82086904D01*
X128577380Y-82325000D01*
X128625000Y-82467857D01*
X128720238Y-82563095D01*
X128815476Y-82610714D01*
X129005952Y-82658333D01*
X129148809Y-82658333D01*
X129339285Y-82610714D01*
X129434523Y-82563095D01*
X129529761Y-82467857D01*
X129577380Y-82325000D01*
X129577380Y-82086904D01*
X128577380Y-82991666D02*
X128577380Y-83610714D01*
X128958333Y-83277380D01*
X128958333Y-83420238D01*
X129005952Y-83515476D01*
X129053571Y-83563095D01*
X129148809Y-83610714D01*
X129386904Y-83610714D01*
X129482142Y-83563095D01*
X129529761Y-83515476D01*
X129577380Y-83420238D01*
X129577380Y-83134523D01*
X129529761Y-83039285D01*
X129482142Y-82991666D01*
X134441666Y-82035714D02*
X134441666Y-82511904D01*
X134727380Y-81940476D02*
X133727380Y-82273809D01*
X134727380Y-82607142D01*
X134727380Y-82988095D02*
X134727380Y-83178571D01*
X134679761Y-83273809D01*
X134632142Y-83321428D01*
X134489285Y-83416666D01*
X134298809Y-83464285D01*
X133917857Y-83464285D01*
X133822619Y-83416666D01*
X133775000Y-83369047D01*
X133727380Y-83273809D01*
X133727380Y-83083333D01*
X133775000Y-82988095D01*
X133822619Y-82940476D01*
X133917857Y-82892857D01*
X134155952Y-82892857D01*
X134251190Y-82940476D01*
X134298809Y-82988095D01*
X134346428Y-83083333D01*
X134346428Y-83273809D01*
X134298809Y-83369047D01*
X134251190Y-83416666D01*
X134155952Y-83464285D01*
X137327380Y-82086904D02*
X136327380Y-82086904D01*
X136327380Y-82325000D01*
X136375000Y-82467857D01*
X136470238Y-82563095D01*
X136565476Y-82610714D01*
X136755952Y-82658333D01*
X136898809Y-82658333D01*
X137089285Y-82610714D01*
X137184523Y-82563095D01*
X137279761Y-82467857D01*
X137327380Y-82325000D01*
X137327380Y-82086904D01*
X136327380Y-82991666D02*
X136327380Y-83658333D01*
X137327380Y-83229761D01*
X123502380Y-80866666D02*
X124502380Y-81200000D01*
X123502380Y-81533333D01*
X124407142Y-82438095D02*
X124454761Y-82390476D01*
X124502380Y-82247619D01*
X124502380Y-82152380D01*
X124454761Y-82009523D01*
X124359523Y-81914285D01*
X124264285Y-81866666D01*
X124073809Y-81819047D01*
X123930952Y-81819047D01*
X123740476Y-81866666D01*
X123645238Y-81914285D01*
X123550000Y-82009523D01*
X123502380Y-82152380D01*
X123502380Y-82247619D01*
X123550000Y-82390476D01*
X123597619Y-82438095D01*
X124407142Y-83438095D02*
X124454761Y-83390476D01*
X124502380Y-83247619D01*
X124502380Y-83152380D01*
X124454761Y-83009523D01*
X124359523Y-82914285D01*
X124264285Y-82866666D01*
X124073809Y-82819047D01*
X123930952Y-82819047D01*
X123740476Y-82866666D01*
X123645238Y-82914285D01*
X123550000Y-83009523D01*
X123502380Y-83152380D01*
X123502380Y-83247619D01*
X123550000Y-83390476D01*
X123597619Y-83438095D01*
X152527380Y-90054761D02*
X151527380Y-90054761D01*
X152527380Y-90626190D01*
X151527380Y-90626190D01*
X152527380Y-91102380D02*
X151527380Y-91102380D01*
X152241666Y-91435714D01*
X151527380Y-91769047D01*
X152527380Y-91769047D01*
X152527380Y-92245238D02*
X151527380Y-92245238D01*
X139852380Y-82111904D02*
X138852380Y-82111904D01*
X138852380Y-82350000D01*
X138900000Y-82492857D01*
X138995238Y-82588095D01*
X139090476Y-82635714D01*
X139280952Y-82683333D01*
X139423809Y-82683333D01*
X139614285Y-82635714D01*
X139709523Y-82588095D01*
X139804761Y-82492857D01*
X139852380Y-82350000D01*
X139852380Y-82111904D01*
X138852380Y-83540476D02*
X138852380Y-83350000D01*
X138900000Y-83254761D01*
X138947619Y-83207142D01*
X139090476Y-83111904D01*
X139280952Y-83064285D01*
X139661904Y-83064285D01*
X139757142Y-83111904D01*
X139804761Y-83159523D01*
X139852380Y-83254761D01*
X139852380Y-83445238D01*
X139804761Y-83540476D01*
X139757142Y-83588095D01*
X139661904Y-83635714D01*
X139423809Y-83635714D01*
X139328571Y-83588095D01*
X139280952Y-83540476D01*
X139233333Y-83445238D01*
X139233333Y-83254761D01*
X139280952Y-83159523D01*
X139328571Y-83111904D01*
X139423809Y-83064285D01*
X176950000Y-90438095D02*
X176902380Y-90342857D01*
X176902380Y-90200000D01*
X176950000Y-90057142D01*
X177045238Y-89961904D01*
X177140476Y-89914285D01*
X177330952Y-89866666D01*
X177473809Y-89866666D01*
X177664285Y-89914285D01*
X177759523Y-89961904D01*
X177854761Y-90057142D01*
X177902380Y-90200000D01*
X177902380Y-90295238D01*
X177854761Y-90438095D01*
X177807142Y-90485714D01*
X177473809Y-90485714D01*
X177473809Y-90295238D01*
X177902380Y-90914285D02*
X176902380Y-90914285D01*
X177902380Y-91485714D01*
X176902380Y-91485714D01*
X177902380Y-91961904D02*
X176902380Y-91961904D01*
X176902380Y-92200000D01*
X176950000Y-92342857D01*
X177045238Y-92438095D01*
X177140476Y-92485714D01*
X177330952Y-92533333D01*
X177473809Y-92533333D01*
X177664285Y-92485714D01*
X177759523Y-92438095D01*
X177854761Y-92342857D01*
X177902380Y-92200000D01*
X177902380Y-91961904D01*
X123527380Y-89766666D02*
X124527380Y-90100000D01*
X123527380Y-90433333D01*
X124432142Y-91338095D02*
X124479761Y-91290476D01*
X124527380Y-91147619D01*
X124527380Y-91052380D01*
X124479761Y-90909523D01*
X124384523Y-90814285D01*
X124289285Y-90766666D01*
X124098809Y-90719047D01*
X123955952Y-90719047D01*
X123765476Y-90766666D01*
X123670238Y-90814285D01*
X123575000Y-90909523D01*
X123527380Y-91052380D01*
X123527380Y-91147619D01*
X123575000Y-91290476D01*
X123622619Y-91338095D01*
X124432142Y-92338095D02*
X124479761Y-92290476D01*
X124527380Y-92147619D01*
X124527380Y-92052380D01*
X124479761Y-91909523D01*
X124384523Y-91814285D01*
X124289285Y-91766666D01*
X124098809Y-91719047D01*
X123955952Y-91719047D01*
X123765476Y-91766666D01*
X123670238Y-91814285D01*
X123575000Y-91909523D01*
X123527380Y-92052380D01*
X123527380Y-92147619D01*
X123575000Y-92290476D01*
X123622619Y-92338095D01*
X127177380Y-90438095D02*
X126701190Y-90104761D01*
X127177380Y-89866666D02*
X126177380Y-89866666D01*
X126177380Y-90247619D01*
X126225000Y-90342857D01*
X126272619Y-90390476D01*
X126367857Y-90438095D01*
X126510714Y-90438095D01*
X126605952Y-90390476D01*
X126653571Y-90342857D01*
X126701190Y-90247619D01*
X126701190Y-89866666D01*
X126177380Y-91057142D02*
X126177380Y-91247619D01*
X126225000Y-91342857D01*
X126320238Y-91438095D01*
X126510714Y-91485714D01*
X126844047Y-91485714D01*
X127034523Y-91438095D01*
X127129761Y-91342857D01*
X127177380Y-91247619D01*
X127177380Y-91057142D01*
X127129761Y-90961904D01*
X127034523Y-90866666D01*
X126844047Y-90819047D01*
X126510714Y-90819047D01*
X126320238Y-90866666D01*
X126225000Y-90961904D01*
X126177380Y-91057142D01*
X127177380Y-91914285D02*
X126177380Y-91914285D01*
X126891666Y-92247619D01*
X126177380Y-92580952D01*
X127177380Y-92580952D01*
X126177380Y-93247619D02*
X126177380Y-93438095D01*
X126225000Y-93533333D01*
X126320238Y-93628571D01*
X126510714Y-93676190D01*
X126844047Y-93676190D01*
X127034523Y-93628571D01*
X127129761Y-93533333D01*
X127177380Y-93438095D01*
X127177380Y-93247619D01*
X127129761Y-93152380D01*
X127034523Y-93057142D01*
X126844047Y-93009523D01*
X126510714Y-93009523D01*
X126320238Y-93057142D01*
X126225000Y-93152380D01*
X126177380Y-93247619D01*
X126653571Y-94104761D02*
X126653571Y-94438095D01*
X127177380Y-94580952D02*
X127177380Y-94104761D01*
X126177380Y-94104761D01*
X126177380Y-94580952D01*
X129652380Y-90472619D02*
X129176190Y-90139285D01*
X129652380Y-89901190D02*
X128652380Y-89901190D01*
X128652380Y-90282142D01*
X128700000Y-90377380D01*
X128747619Y-90425000D01*
X128842857Y-90472619D01*
X128985714Y-90472619D01*
X129080952Y-90425000D01*
X129128571Y-90377380D01*
X129176190Y-90282142D01*
X129176190Y-89901190D01*
X129128571Y-90901190D02*
X129128571Y-91234523D01*
X129652380Y-91377380D02*
X129652380Y-90901190D01*
X128652380Y-90901190D01*
X128652380Y-91377380D01*
X129604761Y-91758333D02*
X129652380Y-91901190D01*
X129652380Y-92139285D01*
X129604761Y-92234523D01*
X129557142Y-92282142D01*
X129461904Y-92329761D01*
X129366666Y-92329761D01*
X129271428Y-92282142D01*
X129223809Y-92234523D01*
X129176190Y-92139285D01*
X129128571Y-91948809D01*
X129080952Y-91853571D01*
X129033333Y-91805952D01*
X128938095Y-91758333D01*
X128842857Y-91758333D01*
X128747619Y-91805952D01*
X128700000Y-91853571D01*
X128652380Y-91948809D01*
X128652380Y-92186904D01*
X128700000Y-92329761D01*
X129128571Y-92758333D02*
X129128571Y-93091666D01*
X129652380Y-93234523D02*
X129652380Y-92758333D01*
X128652380Y-92758333D01*
X128652380Y-93234523D01*
X128652380Y-93520238D02*
X128652380Y-94091666D01*
X129652380Y-93805952D02*
X128652380Y-93805952D01*
X132252380Y-90639285D02*
X131776190Y-90305952D01*
X132252380Y-90067857D02*
X131252380Y-90067857D01*
X131252380Y-90448809D01*
X131300000Y-90544047D01*
X131347619Y-90591666D01*
X131442857Y-90639285D01*
X131585714Y-90639285D01*
X131680952Y-90591666D01*
X131728571Y-90544047D01*
X131776190Y-90448809D01*
X131776190Y-90067857D01*
X131204761Y-91782142D02*
X132490476Y-90925000D01*
X131252380Y-92020238D02*
X132252380Y-92258333D01*
X131538095Y-92448809D01*
X132252380Y-92639285D01*
X131252380Y-92877380D01*
X134466666Y-90135714D02*
X134466666Y-90611904D01*
X134752380Y-90040476D02*
X133752380Y-90373809D01*
X134752380Y-90707142D01*
X134180952Y-91183333D02*
X134133333Y-91088095D01*
X134085714Y-91040476D01*
X133990476Y-90992857D01*
X133942857Y-90992857D01*
X133847619Y-91040476D01*
X133800000Y-91088095D01*
X133752380Y-91183333D01*
X133752380Y-91373809D01*
X133800000Y-91469047D01*
X133847619Y-91516666D01*
X133942857Y-91564285D01*
X133990476Y-91564285D01*
X134085714Y-91516666D01*
X134133333Y-91469047D01*
X134180952Y-91373809D01*
X134180952Y-91183333D01*
X134228571Y-91088095D01*
X134276190Y-91040476D01*
X134371428Y-90992857D01*
X134561904Y-90992857D01*
X134657142Y-91040476D01*
X134704761Y-91088095D01*
X134752380Y-91183333D01*
X134752380Y-91373809D01*
X134704761Y-91469047D01*
X134657142Y-91516666D01*
X134561904Y-91564285D01*
X134371428Y-91564285D01*
X134276190Y-91516666D01*
X134228571Y-91469047D01*
X134180952Y-91373809D01*
X137041666Y-90059523D02*
X137041666Y-90535714D01*
X137327380Y-89964285D02*
X136327380Y-90297619D01*
X137327380Y-90630952D01*
X137327380Y-91488095D02*
X137327380Y-90916666D01*
X137327380Y-91202380D02*
X136327380Y-91202380D01*
X136470238Y-91107142D01*
X136565476Y-91011904D01*
X136613095Y-90916666D01*
X136327380Y-91821428D02*
X136327380Y-92440476D01*
X136708333Y-92107142D01*
X136708333Y-92250000D01*
X136755952Y-92345238D01*
X136803571Y-92392857D01*
X136898809Y-92440476D01*
X137136904Y-92440476D01*
X137232142Y-92392857D01*
X137279761Y-92345238D01*
X137327380Y-92250000D01*
X137327380Y-91964285D01*
X137279761Y-91869047D01*
X137232142Y-91821428D01*
X139641666Y-90059523D02*
X139641666Y-90535714D01*
X139927380Y-89964285D02*
X138927380Y-90297619D01*
X139927380Y-90630952D01*
X139927380Y-91488095D02*
X139927380Y-90916666D01*
X139927380Y-91202380D02*
X138927380Y-91202380D01*
X139070238Y-91107142D01*
X139165476Y-91011904D01*
X139213095Y-90916666D01*
X139022619Y-91869047D02*
X138975000Y-91916666D01*
X138927380Y-92011904D01*
X138927380Y-92250000D01*
X138975000Y-92345238D01*
X139022619Y-92392857D01*
X139117857Y-92440476D01*
X139213095Y-92440476D01*
X139355952Y-92392857D01*
X139927380Y-91821428D01*
X139927380Y-92440476D01*
X144571428Y-90039285D02*
X144571428Y-90801190D01*
X143952380Y-91753571D02*
X143952380Y-91277380D01*
X144428571Y-91229761D01*
X144380952Y-91277380D01*
X144333333Y-91372619D01*
X144333333Y-91610714D01*
X144380952Y-91705952D01*
X144428571Y-91753571D01*
X144523809Y-91801190D01*
X144761904Y-91801190D01*
X144857142Y-91753571D01*
X144904761Y-91705952D01*
X144952380Y-91610714D01*
X144952380Y-91372619D01*
X144904761Y-91277380D01*
X144857142Y-91229761D01*
X143952380Y-92086904D02*
X144952380Y-92420238D01*
X143952380Y-92753571D01*
X172471428Y-90100000D02*
X172471428Y-90861904D01*
X172852380Y-90480952D02*
X172090476Y-90480952D01*
X171852380Y-91814285D02*
X171852380Y-91338095D01*
X172328571Y-91290476D01*
X172280952Y-91338095D01*
X172233333Y-91433333D01*
X172233333Y-91671428D01*
X172280952Y-91766666D01*
X172328571Y-91814285D01*
X172423809Y-91861904D01*
X172661904Y-91861904D01*
X172757142Y-91814285D01*
X172804761Y-91766666D01*
X172852380Y-91671428D01*
X172852380Y-91433333D01*
X172804761Y-91338095D01*
X172757142Y-91290476D01*
X171804761Y-93766666D02*
X173090476Y-92909523D01*
X172185714Y-95290476D02*
X172852380Y-95290476D01*
X171804761Y-95052380D02*
X172519047Y-94814285D01*
X172519047Y-95433333D01*
X172852380Y-95814285D02*
X171852380Y-95814285D01*
X172471428Y-95909523D02*
X172852380Y-96195238D01*
X172185714Y-96195238D02*
X172566666Y-95814285D01*
X171852380Y-96528571D02*
X171852380Y-97195238D01*
X172852380Y-96766666D01*
X149666666Y-82060714D02*
X149666666Y-82536904D01*
X149952380Y-81965476D02*
X148952380Y-82298809D01*
X149952380Y-82632142D01*
X148952380Y-82870238D02*
X148952380Y-83536904D01*
X149952380Y-83108333D01*
X152216666Y-82110714D02*
X152216666Y-82586904D01*
X152502380Y-82015476D02*
X151502380Y-82348809D01*
X152502380Y-82682142D01*
X151502380Y-83444047D02*
X151502380Y-83253571D01*
X151550000Y-83158333D01*
X151597619Y-83110714D01*
X151740476Y-83015476D01*
X151930952Y-82967857D01*
X152311904Y-82967857D01*
X152407142Y-83015476D01*
X152454761Y-83063095D01*
X152502380Y-83158333D01*
X152502380Y-83348809D01*
X152454761Y-83444047D01*
X152407142Y-83491666D01*
X152311904Y-83539285D01*
X152073809Y-83539285D01*
X151978571Y-83491666D01*
X151930952Y-83444047D01*
X151883333Y-83348809D01*
X151883333Y-83158333D01*
X151930952Y-83063095D01*
X151978571Y-83015476D01*
X152073809Y-82967857D01*
X154741666Y-82110714D02*
X154741666Y-82586904D01*
X155027380Y-82015476D02*
X154027380Y-82348809D01*
X155027380Y-82682142D01*
X154027380Y-83491666D02*
X154027380Y-83015476D01*
X154503571Y-82967857D01*
X154455952Y-83015476D01*
X154408333Y-83110714D01*
X154408333Y-83348809D01*
X154455952Y-83444047D01*
X154503571Y-83491666D01*
X154598809Y-83539285D01*
X154836904Y-83539285D01*
X154932142Y-83491666D01*
X154979761Y-83444047D01*
X155027380Y-83348809D01*
X155027380Y-83110714D01*
X154979761Y-83015476D01*
X154932142Y-82967857D01*
X157341666Y-82110714D02*
X157341666Y-82586904D01*
X157627380Y-82015476D02*
X156627380Y-82348809D01*
X157627380Y-82682142D01*
X156960714Y-83444047D02*
X157627380Y-83444047D01*
X156579761Y-83205952D02*
X157294047Y-82967857D01*
X157294047Y-83586904D01*
X175352380Y-82086904D02*
X174352380Y-82086904D01*
X174352380Y-82325000D01*
X174400000Y-82467857D01*
X174495238Y-82563095D01*
X174590476Y-82610714D01*
X174780952Y-82658333D01*
X174923809Y-82658333D01*
X175114285Y-82610714D01*
X175209523Y-82563095D01*
X175304761Y-82467857D01*
X175352380Y-82325000D01*
X175352380Y-82086904D01*
X175352380Y-83610714D02*
X175352380Y-83039285D01*
X175352380Y-83325000D02*
X174352380Y-83325000D01*
X174495238Y-83229761D01*
X174590476Y-83134523D01*
X174638095Y-83039285D01*
X176950000Y-81488095D02*
X176902380Y-81392857D01*
X176902380Y-81250000D01*
X176950000Y-81107142D01*
X177045238Y-81011904D01*
X177140476Y-80964285D01*
X177330952Y-80916666D01*
X177473809Y-80916666D01*
X177664285Y-80964285D01*
X177759523Y-81011904D01*
X177854761Y-81107142D01*
X177902380Y-81250000D01*
X177902380Y-81345238D01*
X177854761Y-81488095D01*
X177807142Y-81535714D01*
X177473809Y-81535714D01*
X177473809Y-81345238D01*
X177902380Y-81964285D02*
X176902380Y-81964285D01*
X177902380Y-82535714D01*
X176902380Y-82535714D01*
X177902380Y-83011904D02*
X176902380Y-83011904D01*
X176902380Y-83250000D01*
X176950000Y-83392857D01*
X177045238Y-83488095D01*
X177140476Y-83535714D01*
X177330952Y-83583333D01*
X177473809Y-83583333D01*
X177664285Y-83535714D01*
X177759523Y-83488095D01*
X177854761Y-83392857D01*
X177902380Y-83250000D01*
X177902380Y-83011904D01*
X172877380Y-82086904D02*
X171877380Y-82086904D01*
X171877380Y-82325000D01*
X171925000Y-82467857D01*
X172020238Y-82563095D01*
X172115476Y-82610714D01*
X172305952Y-82658333D01*
X172448809Y-82658333D01*
X172639285Y-82610714D01*
X172734523Y-82563095D01*
X172829761Y-82467857D01*
X172877380Y-82325000D01*
X172877380Y-82086904D01*
X171972619Y-83039285D02*
X171925000Y-83086904D01*
X171877380Y-83182142D01*
X171877380Y-83420238D01*
X171925000Y-83515476D01*
X171972619Y-83563095D01*
X172067857Y-83610714D01*
X172163095Y-83610714D01*
X172305952Y-83563095D01*
X172877380Y-82991666D01*
X172877380Y-83610714D01*
X170352380Y-82086904D02*
X169352380Y-82086904D01*
X169352380Y-82325000D01*
X169400000Y-82467857D01*
X169495238Y-82563095D01*
X169590476Y-82610714D01*
X169780952Y-82658333D01*
X169923809Y-82658333D01*
X170114285Y-82610714D01*
X170209523Y-82563095D01*
X170304761Y-82467857D01*
X170352380Y-82325000D01*
X170352380Y-82086904D01*
X169352380Y-83277380D02*
X169352380Y-83372619D01*
X169400000Y-83467857D01*
X169447619Y-83515476D01*
X169542857Y-83563095D01*
X169733333Y-83610714D01*
X169971428Y-83610714D01*
X170161904Y-83563095D01*
X170257142Y-83515476D01*
X170304761Y-83467857D01*
X170352380Y-83372619D01*
X170352380Y-83277380D01*
X170304761Y-83182142D01*
X170257142Y-83134523D01*
X170161904Y-83086904D01*
X169971428Y-83039285D01*
X169733333Y-83039285D01*
X169542857Y-83086904D01*
X169447619Y-83134523D01*
X169400000Y-83182142D01*
X169352380Y-83277380D01*
X164966666Y-82085714D02*
X164966666Y-82561904D01*
X165252380Y-81990476D02*
X164252380Y-82323809D01*
X165252380Y-82657142D01*
X165252380Y-83514285D02*
X165252380Y-82942857D01*
X165252380Y-83228571D02*
X164252380Y-83228571D01*
X164395238Y-83133333D01*
X164490476Y-83038095D01*
X164538095Y-82942857D01*
X162341666Y-82085714D02*
X162341666Y-82561904D01*
X162627380Y-81990476D02*
X161627380Y-82323809D01*
X162627380Y-82657142D01*
X161722619Y-82942857D02*
X161675000Y-82990476D01*
X161627380Y-83085714D01*
X161627380Y-83323809D01*
X161675000Y-83419047D01*
X161722619Y-83466666D01*
X161817857Y-83514285D01*
X161913095Y-83514285D01*
X162055952Y-83466666D01*
X162627380Y-82895238D01*
X162627380Y-83514285D01*
X159841666Y-82085714D02*
X159841666Y-82561904D01*
X160127380Y-81990476D02*
X159127380Y-82323809D01*
X160127380Y-82657142D01*
X159127380Y-82895238D02*
X159127380Y-83514285D01*
X159508333Y-83180952D01*
X159508333Y-83323809D01*
X159555952Y-83419047D01*
X159603571Y-83466666D01*
X159698809Y-83514285D01*
X159936904Y-83514285D01*
X160032142Y-83466666D01*
X160079761Y-83419047D01*
X160127380Y-83323809D01*
X160127380Y-83038095D01*
X160079761Y-82942857D01*
X160032142Y-82895238D01*
X167466666Y-82060714D02*
X167466666Y-82536904D01*
X167752380Y-81965476D02*
X166752380Y-82298809D01*
X167752380Y-82632142D01*
X166752380Y-83155952D02*
X166752380Y-83251190D01*
X166800000Y-83346428D01*
X166847619Y-83394047D01*
X166942857Y-83441666D01*
X167133333Y-83489285D01*
X167371428Y-83489285D01*
X167561904Y-83441666D01*
X167657142Y-83394047D01*
X167704761Y-83346428D01*
X167752380Y-83251190D01*
X167752380Y-83155952D01*
X167704761Y-83060714D01*
X167657142Y-83013095D01*
X167561904Y-82965476D01*
X167371428Y-82917857D01*
X167133333Y-82917857D01*
X166942857Y-82965476D01*
X166847619Y-83013095D01*
X166800000Y-83060714D01*
X166752380Y-83155952D01*
X177768190Y-117166380D02*
X177672952Y-117166380D01*
X177577714Y-117214000D01*
X177530095Y-117261619D01*
X177482476Y-117356857D01*
X177434857Y-117547333D01*
X177434857Y-117785428D01*
X177482476Y-117975904D01*
X177530095Y-118071142D01*
X177577714Y-118118761D01*
X177672952Y-118166380D01*
X177768190Y-118166380D01*
X177863428Y-118118761D01*
X177911047Y-118071142D01*
X177958666Y-117975904D01*
X178006285Y-117785428D01*
X178006285Y-117547333D01*
X177958666Y-117356857D01*
X177911047Y-117261619D01*
X177863428Y-117214000D01*
X177768190Y-117166380D01*
X177149142Y-117166380D02*
X176815809Y-118166380D01*
X176482476Y-117166380D01*
X124142476Y-117166380D02*
X124618666Y-117166380D01*
X124666285Y-117642571D01*
X124618666Y-117594952D01*
X124523428Y-117547333D01*
X124285333Y-117547333D01*
X124190095Y-117594952D01*
X124142476Y-117642571D01*
X124094857Y-117737809D01*
X124094857Y-117975904D01*
X124142476Y-118071142D01*
X124190095Y-118118761D01*
X124285333Y-118166380D01*
X124523428Y-118166380D01*
X124618666Y-118118761D01*
X124666285Y-118071142D01*
X123809142Y-117166380D02*
X123475809Y-118166380D01*
X123142476Y-117166380D01*
D11*
X190425000Y-116069047D02*
X190425000Y-108069047D01*
X189663095Y-113021428D02*
X187377380Y-116069047D01*
X187377380Y-110735714D02*
X190425000Y-113783333D01*
X180901190Y-115688095D02*
X181663095Y-116069047D01*
X183186904Y-116069047D01*
X183948809Y-115688095D01*
X184329761Y-114926190D01*
X184329761Y-111878571D01*
X183948809Y-111116666D01*
X183186904Y-110735714D01*
X181663095Y-110735714D01*
X180901190Y-111116666D01*
X180520238Y-111878571D01*
X180520238Y-112640476D01*
X184329761Y-113402380D01*
X177853571Y-110735714D02*
X175948809Y-116069047D01*
X174044047Y-110735714D02*
X175948809Y-116069047D01*
X176710714Y-117973809D01*
X177091666Y-118354761D01*
X177853571Y-118735714D01*
X170996428Y-116069047D02*
X170996428Y-108069047D01*
X170996428Y-111116666D02*
X170234523Y-110735714D01*
X168710714Y-110735714D01*
X167948809Y-111116666D01*
X167567857Y-111497619D01*
X167186904Y-112259523D01*
X167186904Y-114545238D01*
X167567857Y-115307142D01*
X167948809Y-115688095D01*
X168710714Y-116069047D01*
X170234523Y-116069047D01*
X170996428Y-115688095D01*
X162615476Y-116069047D02*
X163377380Y-115688095D01*
X163758333Y-115307142D01*
X164139285Y-114545238D01*
X164139285Y-112259523D01*
X163758333Y-111497619D01*
X163377380Y-111116666D01*
X162615476Y-110735714D01*
X161472619Y-110735714D01*
X160710714Y-111116666D01*
X160329761Y-111497619D01*
X159948809Y-112259523D01*
X159948809Y-114545238D01*
X160329761Y-115307142D01*
X160710714Y-115688095D01*
X161472619Y-116069047D01*
X162615476Y-116069047D01*
X153091666Y-116069047D02*
X153091666Y-111878571D01*
X153472619Y-111116666D01*
X154234523Y-110735714D01*
X155758333Y-110735714D01*
X156520238Y-111116666D01*
X153091666Y-115688095D02*
X153853571Y-116069047D01*
X155758333Y-116069047D01*
X156520238Y-115688095D01*
X156901190Y-114926190D01*
X156901190Y-114164285D01*
X156520238Y-113402380D01*
X155758333Y-113021428D01*
X153853571Y-113021428D01*
X153091666Y-112640476D01*
X149282142Y-116069047D02*
X149282142Y-110735714D01*
X149282142Y-112259523D02*
X148901190Y-111497619D01*
X148520238Y-111116666D01*
X147758333Y-110735714D01*
X146996428Y-110735714D01*
X140901190Y-116069047D02*
X140901190Y-108069047D01*
X140901190Y-115688095D02*
X141663095Y-116069047D01*
X143186904Y-116069047D01*
X143948809Y-115688095D01*
X144329761Y-115307142D01*
X144710714Y-114545238D01*
X144710714Y-112259523D01*
X144329761Y-111497619D01*
X143948809Y-111116666D01*
X143186904Y-110735714D01*
X141663095Y-110735714D01*
X140901190Y-111116666D01*
X131377380Y-115688095D02*
X130615476Y-116069047D01*
X129091666Y-116069047D01*
X128329761Y-115688095D01*
X127948809Y-114926190D01*
X127948809Y-114545238D01*
X128329761Y-113783333D01*
X129091666Y-113402380D01*
X130234523Y-113402380D01*
X130996428Y-113021428D01*
X131377380Y-112259523D01*
X131377380Y-111878571D01*
X130996428Y-111116666D01*
X130234523Y-110735714D01*
X129091666Y-110735714D01*
X128329761Y-111116666D01*
X124520238Y-116069047D02*
X124520238Y-110735714D01*
X124520238Y-108069047D02*
X124901190Y-108450000D01*
X124520238Y-108830952D01*
X124139285Y-108450000D01*
X124520238Y-108069047D01*
X124520238Y-108830952D01*
X117282142Y-116069047D02*
X117282142Y-108069047D01*
X117282142Y-115688095D02*
X118044047Y-116069047D01*
X119567857Y-116069047D01*
X120329761Y-115688095D01*
X120710714Y-115307142D01*
X121091666Y-114545238D01*
X121091666Y-112259523D01*
X120710714Y-111497619D01*
X120329761Y-111116666D01*
X119567857Y-110735714D01*
X118044047Y-110735714D01*
X117282142Y-111116666D01*
X110424999Y-115688095D02*
X111186904Y-116069047D01*
X112710714Y-116069047D01*
X113472619Y-115688095D01*
X113853571Y-114926190D01*
X113853571Y-111878571D01*
X113472619Y-111116666D01*
X112710714Y-110735714D01*
X111186904Y-110735714D01*
X110424999Y-111116666D01*
X110044047Y-111878571D01*
X110044047Y-112640476D01*
X113853571Y-113402380D01*
M02*
