G04 #@! TF.GenerationSoftware,KiCad,Pcbnew,(5.1.2-1)-1*
G04 #@! TF.CreationDate,2022-07-30T23:38:52+02:00*
G04 #@! TF.ProjectId,ElectronBreakOut,456c6563-7472-46f6-9e42-7265616b4f75,rev?*
G04 #@! TF.SameCoordinates,Original*
G04 #@! TF.FileFunction,Copper,L2,Bot*
G04 #@! TF.FilePolarity,Positive*
%FSLAX46Y46*%
G04 Gerber Fmt 4.6, Leading zero omitted, Abs format (unit mm)*
G04 Created by KiCad (PCBNEW (5.1.2-1)-1) date 2022-07-30 23:38:52*
%MOMM*%
%LPD*%
G04 APERTURE LIST*
%ADD10R,1.270000X11.000000*%
%ADD11O,1.700000X1.700000*%
%ADD12R,1.700000X1.700000*%
%ADD13C,0.400000*%
G04 APERTURE END LIST*
D10*
X177292000Y-124714000D03*
X174752000Y-124714000D03*
X172212000Y-124714000D03*
X169672000Y-124714000D03*
X167132000Y-124714000D03*
X164592000Y-124714000D03*
X162052000Y-124714000D03*
X159512000Y-124714000D03*
X156972000Y-124714000D03*
X154432000Y-124714000D03*
X151892000Y-124714000D03*
X149352000Y-124714000D03*
X146812000Y-124714000D03*
X144272000Y-124714000D03*
X141732000Y-124714000D03*
X139192000Y-124714000D03*
X136652000Y-124714000D03*
X134112000Y-124714000D03*
X131572000Y-124714000D03*
X129032000Y-124714000D03*
X126492000Y-124714000D03*
X123952000Y-124714000D03*
X177380000Y-77470000D03*
X174840000Y-77470000D03*
X172300000Y-77470000D03*
X169760000Y-77470000D03*
X167220000Y-77470000D03*
X164680000Y-77470000D03*
X162140000Y-77470000D03*
X159600000Y-77470000D03*
X157060000Y-77470000D03*
X154520000Y-77470000D03*
X151980000Y-77470000D03*
X149440000Y-77470000D03*
X146900000Y-77470000D03*
X144360000Y-77470000D03*
X141820000Y-77470000D03*
X139280000Y-77470000D03*
X136740000Y-77470000D03*
X134200000Y-77470000D03*
X131660000Y-77470000D03*
X129120000Y-77470000D03*
X126580000Y-77470000D03*
X124040000Y-77470000D03*
D11*
X177340000Y-85410000D03*
X177340000Y-87950000D03*
X174800000Y-85410000D03*
X174800000Y-87950000D03*
X172260000Y-85410000D03*
X172260000Y-87950000D03*
X169720000Y-85410000D03*
X169720000Y-87950000D03*
X167180000Y-85410000D03*
X167180000Y-87950000D03*
X164640000Y-85410000D03*
X164640000Y-87950000D03*
X162100000Y-85410000D03*
X162100000Y-87950000D03*
X159560000Y-85410000D03*
X159560000Y-87950000D03*
X157020000Y-85410000D03*
X157020000Y-87950000D03*
X154480000Y-85410000D03*
X154480000Y-87950000D03*
X151940000Y-85410000D03*
X151940000Y-87950000D03*
X149400000Y-85410000D03*
X149400000Y-87950000D03*
X146860000Y-85410000D03*
X146860000Y-87950000D03*
X144320000Y-85410000D03*
X144320000Y-87950000D03*
X141780000Y-85410000D03*
X141780000Y-87950000D03*
X139240000Y-85410000D03*
X139240000Y-87950000D03*
X136700000Y-85410000D03*
X136700000Y-87950000D03*
X134160000Y-85410000D03*
X134160000Y-87950000D03*
X131620000Y-85410000D03*
X131620000Y-87950000D03*
X129080000Y-85410000D03*
X129080000Y-87950000D03*
X126540000Y-85410000D03*
X126540000Y-87950000D03*
X124000000Y-85410000D03*
D12*
X124000000Y-87950000D03*
D13*
X177292000Y-87998000D02*
X177340000Y-87950000D01*
X177292000Y-124714000D02*
X177292000Y-87998000D01*
X177340000Y-87950000D02*
X177340000Y-85410000D01*
X177340000Y-77510000D02*
X177380000Y-77470000D01*
X177340000Y-85410000D02*
X177340000Y-77510000D01*
X174752000Y-77558000D02*
X174840000Y-77470000D01*
X176041999Y-117524001D02*
X176041999Y-94507999D01*
X174752000Y-118814000D02*
X176041999Y-117524001D01*
X174752000Y-124714000D02*
X174752000Y-118814000D01*
X175649999Y-86259999D02*
X174800000Y-85410000D01*
X176050001Y-86660001D02*
X175649999Y-86259999D01*
X176050001Y-94499997D02*
X176050001Y-86660001D01*
X176041999Y-94507999D02*
X176050001Y-94499997D01*
X174800000Y-77510000D02*
X174840000Y-77470000D01*
X174800000Y-85410000D02*
X174800000Y-77510000D01*
X173501999Y-117524001D02*
X173501999Y-94507999D01*
X172212000Y-118814000D02*
X173501999Y-117524001D01*
X172212000Y-124714000D02*
X172212000Y-118814000D01*
X173510001Y-94499997D02*
X173510001Y-86660001D01*
X173109999Y-86259999D02*
X172260000Y-85410000D01*
X173510001Y-86660001D02*
X173109999Y-86259999D01*
X173501999Y-94507999D02*
X173510001Y-94499997D01*
X172260000Y-77510000D02*
X172300000Y-77470000D01*
X172260000Y-85410000D02*
X172260000Y-77510000D01*
X169672000Y-77558000D02*
X169760000Y-77470000D01*
X170970001Y-86660001D02*
X170569999Y-86259999D01*
X170970001Y-89824001D02*
X170970001Y-86660001D01*
X170922001Y-89872001D02*
X170970001Y-89824001D01*
X170922001Y-117563999D02*
X170922001Y-89872001D01*
X170569999Y-86259999D02*
X169720000Y-85410000D01*
X169672000Y-118814000D02*
X170922001Y-117563999D01*
X169672000Y-124714000D02*
X169672000Y-118814000D01*
X169720000Y-77510000D02*
X169760000Y-77470000D01*
X169720000Y-85410000D02*
X169720000Y-77510000D01*
X168421999Y-117524001D02*
X168421999Y-94507999D01*
X167132000Y-118814000D02*
X168421999Y-117524001D01*
X167132000Y-124714000D02*
X167132000Y-118814000D01*
X168029999Y-86259999D02*
X167180000Y-85410000D01*
X168430001Y-86660001D02*
X168029999Y-86259999D01*
X168430001Y-94499997D02*
X168430001Y-86660001D01*
X168421999Y-94507999D02*
X168430001Y-94499997D01*
X167180000Y-77510000D02*
X167220000Y-77470000D01*
X167180000Y-85410000D02*
X167180000Y-77510000D01*
X164592000Y-77558000D02*
X164680000Y-77470000D01*
X165489999Y-86259999D02*
X164640000Y-85410000D01*
X165890001Y-88550001D02*
X165890001Y-86660001D01*
X164592000Y-118814000D02*
X165813999Y-117592001D01*
X165842001Y-88598001D02*
X165890001Y-88550001D01*
X165842001Y-117592001D02*
X165842001Y-88598001D01*
X165890001Y-86660001D02*
X165489999Y-86259999D01*
X165813999Y-117592001D02*
X165842001Y-117592001D01*
X164592000Y-124714000D02*
X164592000Y-118814000D01*
X164640000Y-77510000D02*
X164680000Y-77470000D01*
X164640000Y-85410000D02*
X164640000Y-77510000D01*
X162052000Y-118814000D02*
X163341999Y-117524001D01*
X163341999Y-117524001D02*
X163341999Y-94507999D01*
X162052000Y-124714000D02*
X162052000Y-118814000D01*
X162949999Y-86259999D02*
X162100000Y-85410000D01*
X163350001Y-86660001D02*
X162949999Y-86259999D01*
X163350001Y-94499997D02*
X163350001Y-86660001D01*
X163341999Y-94507999D02*
X163350001Y-94499997D01*
X162100000Y-77510000D02*
X162140000Y-77470000D01*
X162100000Y-85410000D02*
X162100000Y-77510000D01*
X159512000Y-77558000D02*
X159600000Y-77470000D01*
X160409999Y-86259999D02*
X159560000Y-85410000D01*
X160810001Y-86660001D02*
X160409999Y-86259999D01*
X159512000Y-118814000D02*
X160801999Y-117524001D01*
X160810001Y-88550001D02*
X160810001Y-86660001D01*
X160801999Y-117524001D02*
X160801999Y-88558003D01*
X160801999Y-88558003D02*
X160810001Y-88550001D01*
X159512000Y-124714000D02*
X159512000Y-118814000D01*
X159560000Y-77510000D02*
X159600000Y-77470000D01*
X159560000Y-85410000D02*
X159560000Y-77510000D01*
X157869999Y-86259999D02*
X157020000Y-85410000D01*
X158270001Y-86660001D02*
X157869999Y-86259999D01*
X156972000Y-124714000D02*
X156972000Y-118814000D01*
X158270001Y-89809999D02*
X158270001Y-86660001D01*
X158250000Y-117536000D02*
X158250000Y-89830000D01*
X158250000Y-89830000D02*
X158270001Y-89809999D01*
X156972000Y-118814000D02*
X158250000Y-117536000D01*
X157020000Y-77510000D02*
X157060000Y-77470000D01*
X157020000Y-85410000D02*
X157020000Y-77510000D01*
X154432000Y-77558000D02*
X154520000Y-77470000D01*
X155329999Y-86259999D02*
X154480000Y-85410000D01*
X155700000Y-89820000D02*
X155730001Y-89789999D01*
X155700000Y-117546000D02*
X155700000Y-89820000D01*
X155730001Y-89789999D02*
X155730001Y-86660001D01*
X155730001Y-86660001D02*
X155329999Y-86259999D01*
X154432000Y-118814000D02*
X155700000Y-117546000D01*
X154432000Y-124714000D02*
X154432000Y-118814000D01*
X154480000Y-77510000D02*
X154520000Y-77470000D01*
X154480000Y-85410000D02*
X154480000Y-77510000D01*
X152789999Y-86259999D02*
X151940000Y-85410000D01*
X153190001Y-86660001D02*
X152789999Y-86259999D01*
X151892000Y-118814000D02*
X153142001Y-117563999D01*
X153190001Y-90044001D02*
X153190001Y-86660001D01*
X153142001Y-90092001D02*
X153190001Y-90044001D01*
X153142001Y-117563999D02*
X153142001Y-90092001D01*
X151892000Y-124714000D02*
X151892000Y-118814000D01*
X151940000Y-77510000D02*
X151980000Y-77470000D01*
X151940000Y-85410000D02*
X151940000Y-77510000D01*
X149352000Y-77558000D02*
X149440000Y-77470000D01*
X149352000Y-118814000D02*
X150575000Y-117525000D01*
X149352000Y-124714000D02*
X149352000Y-118814000D01*
X150249999Y-86259999D02*
X149400000Y-85410000D01*
X150650001Y-86660001D02*
X150249999Y-86259999D01*
X150650001Y-88550001D02*
X150650001Y-86660001D01*
X150602001Y-88598001D02*
X150650001Y-88550001D01*
X150602001Y-117502001D02*
X150602001Y-88598001D01*
X149400000Y-77510000D02*
X149440000Y-77470000D01*
X149400000Y-85410000D02*
X149400000Y-77510000D01*
X148101999Y-117524001D02*
X148101999Y-94507999D01*
X146812000Y-118814000D02*
X148101999Y-117524001D01*
X146812000Y-124714000D02*
X146812000Y-118814000D01*
X147709999Y-86259999D02*
X146860000Y-85410000D01*
X148110001Y-86660001D02*
X147709999Y-86259999D01*
X148110001Y-94499997D02*
X148110001Y-86660001D01*
X148101999Y-94507999D02*
X148110001Y-94499997D01*
X146860000Y-85410000D02*
X146860000Y-83110000D01*
X146900000Y-83070000D02*
X146900000Y-77470000D01*
X146860000Y-83110000D02*
X146900000Y-83070000D01*
X144272000Y-77558000D02*
X144360000Y-77470000D01*
X145561999Y-117524001D02*
X145561999Y-94507999D01*
X144272000Y-118814000D02*
X145561999Y-117524001D01*
X144272000Y-124714000D02*
X144272000Y-118814000D01*
X145169999Y-86259999D02*
X144320000Y-85410000D01*
X145570001Y-86660001D02*
X145169999Y-86259999D01*
X145570001Y-94499997D02*
X145570001Y-86660001D01*
X145561999Y-94507999D02*
X145570001Y-94499997D01*
X144320000Y-77510000D02*
X144360000Y-77470000D01*
X144320000Y-85410000D02*
X144320000Y-77510000D01*
X143030001Y-86660001D02*
X142629999Y-86259999D01*
X142982001Y-88598001D02*
X143030001Y-88550001D01*
X142982001Y-117563999D02*
X142982001Y-88598001D01*
X141732000Y-118814000D02*
X142982001Y-117563999D01*
X142629999Y-86259999D02*
X141780000Y-85410000D01*
X143030001Y-88550001D02*
X143030001Y-86660001D01*
X141732000Y-124714000D02*
X141732000Y-118814000D01*
X141780000Y-77510000D02*
X141820000Y-77470000D01*
X141780000Y-85410000D02*
X141780000Y-77510000D01*
X140490001Y-88550001D02*
X140490001Y-86660001D01*
X140089999Y-86259999D02*
X139240000Y-85410000D01*
X140442001Y-88598001D02*
X140490001Y-88550001D01*
X140442001Y-117563999D02*
X140442001Y-88598001D01*
X140490001Y-86660001D02*
X140089999Y-86259999D01*
X139192000Y-118814000D02*
X140442001Y-117563999D01*
X139192000Y-124714000D02*
X139192000Y-118814000D01*
X139240000Y-77510000D02*
X139280000Y-77470000D01*
X139240000Y-85410000D02*
X139240000Y-77510000D01*
X137941999Y-117524001D02*
X137941999Y-94507999D01*
X136652000Y-118814000D02*
X137941999Y-117524001D01*
X136652000Y-124714000D02*
X136652000Y-118814000D01*
X137950001Y-86660001D02*
X137549999Y-86259999D01*
X137549999Y-86259999D02*
X136700000Y-85410000D01*
X137950001Y-94499997D02*
X137950001Y-86660001D01*
X137941999Y-94507999D02*
X137950001Y-94499997D01*
X136700000Y-77510000D02*
X136740000Y-77470000D01*
X136700000Y-85410000D02*
X136700000Y-77510000D01*
X134112000Y-118814000D02*
X135401999Y-117524001D01*
X134112000Y-124714000D02*
X134112000Y-118814000D01*
X135401999Y-117524001D02*
X135401999Y-95151999D01*
X135401999Y-95151999D02*
X135401999Y-94507999D01*
X135009999Y-86259999D02*
X134160000Y-85410000D01*
X135410001Y-88643997D02*
X135410001Y-86660001D01*
X135401999Y-88651999D02*
X135410001Y-88643997D01*
X135410001Y-86660001D02*
X135009999Y-86259999D01*
X135401999Y-95151999D02*
X135401999Y-88651999D01*
X135401999Y-88651999D02*
X135401999Y-88098001D01*
X134160000Y-77510000D02*
X134200000Y-77470000D01*
X134160000Y-85410000D02*
X134160000Y-77510000D01*
X132469999Y-86259999D02*
X131620000Y-85410000D01*
X132870001Y-86660001D02*
X132469999Y-86259999D01*
X132870001Y-89833997D02*
X132870001Y-86660001D01*
X132861999Y-89841999D02*
X132870001Y-89833997D01*
X132861999Y-117524001D02*
X132861999Y-89841999D01*
X131572000Y-118814000D02*
X132861999Y-117524001D01*
X131572000Y-124714000D02*
X131572000Y-118814000D01*
X131620000Y-77510000D02*
X131660000Y-77470000D01*
X131620000Y-85410000D02*
X131620000Y-77510000D01*
X130330001Y-86660001D02*
X129929999Y-86259999D01*
X130330001Y-88550001D02*
X130330001Y-86660001D01*
X129929999Y-86259999D02*
X129080000Y-85410000D01*
X130282001Y-88598001D02*
X130330001Y-88550001D01*
X130282001Y-117563999D02*
X130282001Y-88598001D01*
X129032000Y-118814000D02*
X130282001Y-117563999D01*
X129032000Y-124714000D02*
X129032000Y-118814000D01*
X129080000Y-77510000D02*
X129120000Y-77470000D01*
X129080000Y-85410000D02*
X129080000Y-77510000D01*
X127389999Y-86259999D02*
X126540000Y-85410000D01*
X127790001Y-88550001D02*
X127790001Y-86660001D01*
X127790001Y-86660001D02*
X127389999Y-86259999D01*
X127742001Y-117563999D02*
X127742001Y-88598001D01*
X126492000Y-118814000D02*
X127742001Y-117563999D01*
X127742001Y-88598001D02*
X127790001Y-88550001D01*
X126492000Y-124714000D02*
X126492000Y-118814000D01*
X126540000Y-77510000D02*
X126580000Y-77470000D01*
X126540000Y-85410000D02*
X126540000Y-77510000D01*
X123952000Y-87998000D02*
X124000000Y-87950000D01*
X123952000Y-124714000D02*
X123952000Y-87998000D01*
X124000000Y-77510000D02*
X124040000Y-77470000D01*
X124000000Y-85410000D02*
X124000000Y-77510000D01*
M02*
